<svg width="124" height="136" viewBox="0 0 124 136" fill="none" xmlns="http://www.w3.org/2000/svg">
<path d="M22.9785 17.8647C23.9116 16.979 24.8448 16.0932 25.8686 15.113C25.9955 14.9466 26.0316 14.8747 26.0677 14.8029C26.0677 14.8029 26.0491 14.8104 26.115 14.8074C26.2776 14.7274 26.3743 14.6505 26.471 14.5736C27.5702 13.757 28.6694 12.9405 29.8669 12.0426C30.0037 11.8985 30.0421 11.8357 30.0806 11.7729C30.0806 11.7729 30.0637 11.7748 30.1269 11.7703C30.2294 11.6994 30.2689 11.6331 30.3083 11.5668C30.3083 11.5668 30.2934 11.5636 30.3625 11.578C30.5376 11.5103 30.6435 11.4281 30.7494 11.3458C30.7494 11.3458 30.7349 11.342 30.7946 11.3346C30.8947 11.262 30.9352 11.1967 30.9757 11.1314C30.9757 11.1314 30.9607 11.1345 31.047 11.1452C31.8284 10.7175 32.5237 10.2791 33.2189 9.84073C33.2189 9.84073 33.2015 9.81617 33.2568 9.81429C33.4234 9.74486 33.5347 9.6773 33.6461 9.60975C33.6461 9.60975 33.6311 9.60678 33.6926 9.60115C33.7944 9.53043 33.8348 9.46534 33.8751 9.40026C33.8751 9.40026 33.8598 9.39686 33.9328 9.42159C34.184 9.35698 34.3623 9.26764 34.5406 9.17832C34.5406 9.17832 34.5344 9.19041 34.6133 9.16957C35.1621 8.87417 35.632 8.59962 36.1019 8.32506C36.1019 8.32506 36.0921 8.31475 36.1593 8.32934C36.3334 8.26462 36.4404 8.18532 36.5474 8.10601C36.5474 8.10601 36.5358 8.09795 36.6079 8.12048C36.8576 8.05426 37.0353 7.9655 37.2129 7.87675C37.2129 7.87675 37.1983 7.86793 37.2619 7.86862C37.4365 7.79903 37.5474 7.72874 37.6584 7.65845C37.6584 7.65845 37.6421 7.65326 37.7089 7.65865C37.8854 7.59119 37.9952 7.51835 38.105 7.4455C38.105 7.4455 38.0905 7.44253 38.1686 7.44678C38.5705 7.30598 38.8943 7.16093 39.2181 7.01588C39.2181 7.01588 39.2056 7.00722 39.2729 7.01563C39.449 6.95046 39.5579 6.87686 39.6668 6.80327C39.6668 6.80327 39.6535 6.79922 39.7424 6.82142C44.0823 5.59268 48.3752 4.52955 52.9142 4.10657C53.7944 4.13299 54.5718 4.13553 55.3464 4.18185C57.3216 4.29995 59.2956 4.43759 61.3607 4.58059C63.8438 5.33087 66.2363 6.06799 68.6287 6.8051C68.6287 6.8051 68.6273 6.78858 68.6582 6.84515C68.8199 6.94025 68.9508 6.97879 69.0817 7.01733C69.0817 7.01733 69.0756 6.99908 69.1085 7.05492C69.2705 7.1515 69.3995 7.19224 69.5286 7.23298C69.5286 7.23298 69.5208 7.21504 69.5517 7.27384C69.7124 7.37275 69.8422 7.41285 69.972 7.45294C69.972 7.45294 69.9633 7.43673 69.9924 7.5011C70.2284 7.67962 70.4353 7.79376 70.6422 7.9079C73.1227 9.86742 75.6133 11.8151 78.0736 13.7982C78.4826 14.1278 78.76 14.6118 79.0131 15.1142C78.6093 15.3565 78.2906 15.5088 77.9719 15.6612C77.9719 15.6612 77.9844 15.6678 77.9073 15.6611C77.5064 15.803 77.1825 15.9516 76.8587 16.1001C76.8587 16.1001 76.873 16.1087 76.8072 16.1049C76.6309 16.1739 76.5204 16.2467 76.41 16.3195C76.41 16.3195 76.4277 16.3265 76.3606 16.3189C76.1836 16.3861 76.0738 16.4609 75.9639 16.5357C75.9639 16.5357 75.9806 16.5383 75.9049 16.5293C75.5759 16.6648 75.3227 16.8094 75.0694 16.954C75.0694 16.954 75.0813 16.9638 75.011 16.9405C74.7627 17.0077 74.5847 17.0982 74.4066 17.1886C74.4066 17.1886 74.4231 17.1963 74.3567 17.1907C74.1796 17.2576 74.0688 17.3301 73.958 17.4026C73.958 17.4026 73.9737 17.4041 73.8933 17.3996C73.342 17.6143 72.871 17.8334 72.4 18.0525C72.4 18.0525 72.4138 18.0633 72.3512 18.0637C72.1775 18.1349 72.0663 18.2056 71.9551 18.2764C71.9551 18.2764 71.9729 18.2833 71.9085 18.2814C71.7329 18.3513 71.6218 18.4232 71.5106 18.4951C71.5106 18.4951 71.528 18.5009 71.4629 18.4996C71.2865 18.5693 71.1753 18.6403 71.0641 18.7114C71.0641 18.7114 71.0821 18.7179 71.0177 18.7172C70.8418 18.7872 70.7302 18.8579 70.6188 18.9286C70.6188 18.9286 70.6365 18.9345 70.5715 18.9338C70.3949 19.0035 70.2833 19.074 70.1717 19.1446C70.1717 19.1446 70.1905 19.1509 70.1253 19.1485C69.9487 19.2177 69.8374 19.2893 69.726 19.3609C69.726 19.3609 69.7444 19.3671 69.6792 19.3649C69.503 19.4344 69.3919 19.5061 69.2807 19.5779C69.2807 19.5779 69.2986 19.5843 69.2339 19.5831C69.058 19.6527 68.9466 19.7234 68.8353 19.7941C68.8353 19.7941 68.8519 19.7958 68.7904 19.8027C68.6872 19.874 68.6455 19.9384 68.6038 20.0029C68.6038 20.0029 68.6231 20.0008 68.5449 19.9807C68.2155 20.1155 67.9644 20.2704 67.7132 20.4253C67.7132 20.4253 67.7264 20.4308 67.6432 20.4203C66.8695 20.7793 66.179 21.1487 65.4884 21.5182C65.4884 21.5182 65.5038 21.5284 65.4395 21.5245C65.2649 21.5948 65.1545 21.669 65.0441 21.7432C65.0441 21.7432 65.0531 21.7619 65.0099 21.7507C64.9668 21.7395 64.8645 21.7698 64.8645 21.7698C59.7844 24.6716 54.6974 27.5622 49.6259 30.4782C44.1703 33.615 38.7286 36.7745 33.2825 39.9268C32.3982 40.4386 31.5224 40.9643 30.4921 41.5137C30.0203 41.7324 29.6991 41.9209 29.3779 42.1095C29.3779 42.1095 29.393 42.119 29.3275 42.1129C29.152 42.1818 29.0422 42.257 28.9323 42.3321C28.9323 42.3321 28.9499 42.339 28.8836 42.3334C28.7073 42.4024 28.5974 42.4769 28.4874 42.5515C28.4874 42.5515 28.5056 42.5591 28.4411 42.5567C28.2658 42.6266 28.155 42.6991 28.0442 42.7716C28.0442 42.7716 28.0616 42.7787 27.9976 42.7787C27.822 42.8488 27.7103 42.9189 27.5987 42.9889C27.5987 42.9889 27.6161 42.9945 27.5512 42.994C27.3751 43.0641 27.2639 43.1347 27.1527 43.2052C27.1527 43.2052 27.17 43.2122 27.1065 43.213C26.9313 43.284 26.8196 43.3542 26.7079 43.4245C26.7079 43.4245 26.7255 43.4215 26.663 43.4306C26.5591 43.5035 26.5177 43.5673 26.4764 43.6312C26.4764 43.6312 26.4958 43.6344 26.4223 43.6106C26.1707 43.6748 25.9925 43.7629 25.8144 43.8509C25.8144 43.8509 25.8297 43.8594 25.7662 43.8595C25.5915 43.9304 25.4802 44.0011 25.3689 44.0718C25.3689 44.0718 25.3867 44.0785 25.3225 44.0782C25.1468 44.1486 25.0353 44.2192 24.9238 44.2898C24.9238 44.2898 24.9414 44.2952 24.8763 44.2947C24.7001 44.3645 24.589 44.4348 24.4779 44.5051C24.4779 44.5051 24.4948 44.512 24.431 44.5122C24.2559 44.5827 24.1445 44.6531 24.0331 44.7235C24.0331 44.7235 24.0498 44.7286 23.9846 44.7281C23.8081 44.7983 23.6968 44.869 23.5855 44.9397C23.5855 44.9397 23.604 44.9458 23.5391 44.9447C23.3625 45.014 23.2509 45.0842 23.1392 45.1545C23.1392 45.1545 23.1571 45.1606 23.0919 45.1586C22.9156 45.2283 22.8045 45.3 22.6933 45.3716C22.6933 45.3716 22.7115 45.3781 22.6466 45.3764C22.4702 45.4459 22.3587 45.5172 22.2472 45.5885C22.2472 45.5885 22.2658 45.5947 22.2002 45.5921C22.0233 45.6611 21.912 45.7326 21.8006 45.8041C21.8006 45.8041 21.8194 45.8108 21.7535 45.8066C21.5765 45.8748 21.4654 45.9471 21.3544 46.0194C21.3544 46.0194 21.3727 46.0255 21.3057 46.0198C21.1282 46.0869 21.0177 46.1597 20.9072 46.2324C20.9072 46.2324 20.9238 46.2355 20.8455 46.2314C20.4908 46.3679 20.2144 46.5086 19.938 46.6493C19.938 46.6493 19.8541 46.6654 19.7447 46.7028C19.0936 47.0043 18.5519 47.2685 18.0101 47.5327C18.0101 47.5327 18.0256 47.5445 17.9634 47.5441C17.7897 47.6147 17.6781 47.6858 17.5665 47.7568C17.5665 47.7568 17.5852 47.7628 17.5192 47.7599C17.3419 47.8282 17.2307 47.8996 17.1194 47.971C17.1194 47.971 17.138 47.9785 17.0724 47.9746C16.8956 48.043 16.7842 48.1153 16.6729 48.1876C16.6729 48.1876 16.6922 48.1934 16.6251 48.186C16.4475 48.2535 16.337 48.3284 16.2265 48.4033C16.2265 48.4033 16.2458 48.41 16.1793 48.404C16.002 48.4713 15.8912 48.5447 15.7805 48.6181C15.7805 48.6181 15.7988 48.6242 15.7311 48.6161C15.5536 48.6831 15.4438 48.7583 15.3341 48.8335C15.3341 48.8335 15.3478 48.8515 15.2821 48.8362C15.1165 48.8199 15.0165 48.8189 14.9166 48.8178C14.6872 47.7249 14.4578 46.632 14.2077 45.3561C14.1405 44.896 14.0499 44.6183 14.0541 44.342C14.0981 41.4404 14.1572 38.539 14.2122 35.6375C14.276 35.52 14.3399 35.4026 14.4268 35.1349C15.2038 32.3777 15.9577 29.7708 16.7116 27.1639C16.7116 27.1639 16.6953 27.166 16.7568 27.1389C16.8546 26.9819 16.8909 26.8521 16.9272 26.7222C16.9272 26.7222 16.9127 26.7311 16.9749 26.6886C17.3733 25.9595 17.7094 25.273 18.0456 24.5865C18.0456 24.5865 18.0403 24.5706 18.0811 24.5275C18.1683 24.3627 18.2147 24.241 18.2611 24.1193C18.2611 24.1193 18.2434 24.1268 18.303 24.0954C18.405 23.9388 18.4474 23.8137 18.4899 23.6886C18.4899 23.6886 18.4729 23.6976 18.5407 23.6743C18.7214 23.4497 18.8342 23.2484 18.9471 23.0471C18.9471 23.0471 18.9257 23.0389 18.9753 23.0075C19.0699 22.8532 19.115 22.7303 19.1601 22.6074C19.1601 22.6074 19.1416 22.616 19.2004 22.6144C19.3189 22.5667 19.3588 22.508 19.3788 22.4365C20.4008 21.1342 21.4228 19.8318 22.5225 18.4205C22.6414 18.2255 22.6825 18.1394 22.7236 18.0534C22.7236 18.0534 22.7019 18.0533 22.7615 18.0491C22.8736 17.9848 22.926 17.9248 22.9785 17.8647Z" fill="#6C98FF"/>
<path d="M96.6958 17.3844C92.9613 19.7861 89.2232 22.1824 85.494 24.5923C84.1106 25.4862 82.7479 26.4122 81.2584 27.409C80.9439 27.6425 80.7467 27.7907 80.5495 27.9388C80.5495 27.9388 80.5649 27.9419 80.4939 27.949C80.2343 28.1027 80.0458 28.2492 79.8573 28.3957C79.8573 28.3957 79.8741 28.4056 79.8082 28.4023C79.6285 28.478 79.5147 28.557 79.401 28.636C79.401 28.636 79.4236 28.6275 79.3484 28.6372C79.0844 28.7932 78.8956 28.9394 78.7068 29.0856C78.7068 29.0856 78.7236 29.0934 78.6553 29.0856C78.4739 29.159 78.3609 29.2403 78.2479 29.3216C78.2479 29.3216 78.2669 29.3309 78.2003 29.3271C78.0128 29.3935 77.8919 29.4637 77.7709 29.5339C77.7709 29.5339 77.6626 29.5425 77.5555 29.5716C77.3824 29.6467 77.3427 29.7094 77.3291 29.7887C77.3291 29.7887 77.3492 29.7873 77.2746 29.7919C77.012 29.9429 76.8239 30.0892 76.6359 30.2356C76.6359 30.2356 76.6527 30.244 76.5841 30.2365C76.4026 30.3092 76.2896 30.3894 76.1765 30.4696C76.1765 30.4696 76.1948 30.4777 76.127 30.4722C75.9454 30.5456 75.8316 30.6245 75.7178 30.7034C75.7178 30.7034 75.7368 30.7103 75.6686 30.7054C75.4864 30.7782 75.3723 30.8559 75.2582 30.9335C75.2582 30.9335 75.2766 30.9407 75.209 30.9371C75.0267 31.0106 74.9122 31.0876 74.7976 31.1647C74.7976 31.1647 74.8172 31.1714 74.7487 31.166C74.5656 31.2379 74.4512 31.3153 74.3368 31.3926C74.3368 31.3926 74.3559 31.399 74.2861 31.391C74.1025 31.4617 73.9889 31.5404 73.8752 31.6191C73.8752 31.6191 73.8922 31.6213 73.8077 31.6171C73.0844 31.92 72.4457 32.2273 71.807 32.5345C71.807 32.5345 71.821 32.5413 71.7422 32.537C71.328 32.6873 70.9925 32.8419 70.657 32.9966C70.657 32.9966 70.6716 33.0028 70.5928 32.9992C70.1783 33.149 69.8426 33.3024 69.5068 33.4558C69.5068 33.4558 69.5207 33.4618 69.4336 33.4585C68.5563 33.7619 67.7662 34.0684 66.9761 34.375C66.9761 34.375 66.99 34.3823 66.8996 34.3736C63.9704 34.9621 61.1326 35.5648 58.2919 36.1528C57.5919 36.2977 56.8819 36.3946 56.0694 36.5014C54.0894 36.4348 52.2165 36.3803 50.3436 36.3258C49.1089 36.3258 47.8743 36.3258 46.6396 36.3258C46.6042 36.1783 46.5688 36.0309 46.5334 35.8834C46.8855 35.6477 47.2288 35.3974 47.591 35.1787C49.8681 33.8039 52.143 32.4252 54.431 31.0687C57.3238 29.3535 60.2218 27.6469 63.1303 25.9585C64.9876 24.8803 66.8678 23.8416 68.8588 22.7098C69.0907 22.5654 69.2015 22.4963 69.3124 22.4272C69.3124 22.4272 69.2937 22.4197 69.3627 22.4277C69.5452 22.3556 69.6586 22.2756 69.772 22.1955C69.772 22.1955 69.7528 22.1881 69.8219 22.1958C70.0048 22.1243 70.1186 22.045 70.2325 21.9657C70.2325 21.9657 70.213 21.958 70.2818 21.9661C70.4643 21.8942 70.5779 21.8143 70.6916 21.7343C70.6916 21.7343 70.6724 21.7269 70.7413 21.734C70.9241 21.6618 71.038 21.5826 71.1519 21.5034C71.1519 21.5034 71.132 21.496 71.2009 21.5031C71.3837 21.4315 71.4976 21.3529 71.6116 21.2743C71.6116 21.2743 71.5928 21.2666 71.6613 21.2726C71.8439 21.2006 71.9579 21.1226 72.072 21.0446C72.072 21.0446 72.0533 21.0378 72.1224 21.0457C72.3051 20.974 72.4187 20.8944 72.5323 20.8149C72.5323 20.8149 72.5136 20.8078 72.5826 20.8147C72.7653 20.7427 72.879 20.6638 72.9927 20.5849C72.9927 20.5849 72.9738 20.5777 73.0427 20.5847C73.2255 20.5132 73.3393 20.4347 73.4532 20.3563C73.4532 20.3563 73.4347 20.3499 73.5048 20.3586C73.688 20.2879 73.801 20.2085 73.9142 20.1291C73.9142 20.1291 73.8981 20.1266 73.9807 20.1326C74.5495 19.9055 75.0356 19.6725 75.5218 19.4395C75.5218 19.4395 75.5082 19.4256 75.5706 19.4217C75.7483 19.3439 75.8635 19.2699 75.9787 19.1959C75.9787 19.1959 75.9602 19.1914 76.0288 19.1941C76.2121 19.1212 76.3267 19.0455 76.4414 18.9698C76.4414 18.9698 76.4224 18.963 76.4905 18.9667C76.6734 18.8942 76.7881 18.8179 76.9028 18.7416C76.9028 18.7416 76.8843 18.7391 76.962 18.7435C77.3023 18.5985 77.565 18.449 77.8277 18.2995C77.8277 18.2995 77.8135 18.2908 77.8823 18.312C78.0594 18.2426 78.1677 18.152 78.2759 18.0613C78.3148 18.0577 78.3537 18.054 78.5303 18.0543C78.9989 17.9049 79.33 17.7516 79.6611 17.5982C79.6611 17.5982 79.6483 17.5886 79.7158 17.5923C79.8965 17.5194 80.0098 17.4427 80.1231 17.3661C80.1231 17.3661 80.1078 17.3631 80.1864 17.3716C80.5255 17.229 80.786 17.078 81.0465 16.927C81.0465 16.927 81.0376 16.9159 81.1205 16.9428C81.6095 16.7972 82.0156 16.6246 82.4217 16.4521C82.4217 16.4521 82.4098 16.4448 82.4956 16.4519C83.1416 16.2271 83.7017 15.9954 84.2619 15.7637C84.2619 15.7637 84.2513 15.7554 84.3407 15.7625C86.1383 15.1537 87.8466 14.5377 89.5549 13.9218C89.5549 13.9218 89.5428 13.9133 89.6341 13.9279C90.5115 13.7053 91.2976 13.468 92.0837 13.2307C92.0837 13.2307 92.0719 13.221 92.1473 13.2376C92.4069 13.1729 92.5911 13.0915 92.7754 13.0101C92.7754 13.0101 92.7666 12.9996 92.8512 13.0314C93.3292 12.9631 93.7228 12.863 94.2134 12.7583C96.4548 12.4357 98.5915 11.9374 100.745 11.8464C103.289 11.7389 105.847 11.9835 108.399 12.0755C108.394 12.163 108.389 12.2505 108.309 12.3765C107.902 12.5248 107.569 12.6344 107.237 12.744C107.237 12.744 107.252 12.7538 107.178 12.7389C106.918 12.8083 106.732 12.8925 106.546 12.9768C106.546 12.9768 106.561 12.9809 106.476 12.9719C105.829 13.1958 105.267 13.4289 104.706 13.6619C104.706 13.6619 104.719 13.669 104.639 13.6607C104.225 13.8091 103.89 13.9658 103.556 14.1225C103.556 14.1225 103.569 14.1328 103.496 14.1227C103.238 14.1966 103.053 14.2805 102.868 14.3645C102.868 14.3645 102.884 14.3719 102.816 14.3677C102.633 14.4403 102.519 14.5172 102.404 14.594C102.404 14.594 102.424 14.6009 102.354 14.5931C102.171 14.6633 102.057 14.7413 101.943 14.8193C101.943 14.8193 101.96 14.8221 101.88 14.8134C101.466 14.9619 101.131 15.1191 100.796 15.2763C100.796 15.2763 100.788 15.2646 100.714 15.2871C100.385 15.4535 100.129 15.5974 99.8742 15.7413C99.8742 15.7413 99.8901 15.7532 99.8264 15.754C99.6478 15.8301 99.5328 15.9055 99.4179 15.9808C99.4179 15.9808 99.4371 15.9805 99.3738 15.9894C99.267 16.0671 99.2236 16.136 99.1802 16.2049C99.1802 16.2049 99.2016 16.2073 99.128 16.1868C98.9428 16.2521 98.8312 16.3378 98.7195 16.4236C98.7195 16.4236 98.735 16.4258 98.652 16.4146C98.1603 16.6415 97.7515 16.8796 97.3427 17.1177C97.3427 17.1177 97.3585 17.128 97.2914 17.1228C97.1108 17.1969 96.9971 17.2762 96.8835 17.3555C96.8835 17.3555 96.8921 17.3765 96.8475 17.3648C96.8029 17.3531 96.6958 17.3844 96.6958 17.3844Z" fill="#6C98FF"/>
<path d="M71.8042 58.4899C71.8042 58.4899 71.7251 58.4747 71.6339 58.4193C70.5735 57.45 69.6042 56.536 68.6206 55.5538C68.5436 55.3636 68.4809 55.2416 68.424 55.1212C68.4297 55.1229 68.4226 55.1325 68.4089 55.056C68.1919 54.4611 67.9885 53.9427 67.79 53.4246C67.795 53.4249 67.7952 53.4348 67.7961 53.3359C67.935 51.6074 68.0732 49.9779 68.2114 48.3484C68.2114 48.3484 68.2174 48.3587 68.258 48.3183C68.3387 48.1617 68.3788 48.0455 68.419 47.9293C68.419 47.9293 68.4257 47.9344 68.4685 47.8927C68.5518 47.7355 68.5922 47.6201 68.6326 47.5048C68.6326 47.5048 68.6376 47.5132 68.6807 47.4902C68.782 47.4238 68.8203 47.367 68.8388 47.2969C68.8388 47.2969 68.8388 47.2927 68.8993 47.2477C69.0637 46.9853 69.1676 46.7679 69.2716 46.5505C69.8047 46.2324 70.3378 45.9144 70.9863 45.5381C71.198 45.3789 71.2942 45.278 71.3904 45.177C71.3904 45.177 71.386 45.1866 71.4801 45.1898C72.8994 45.3089 74.2247 45.4247 75.55 45.5405C77.2221 46.1901 77.979 47.5981 78.5609 49.3322C78.9374 51.4847 78.7179 53.4232 78.1509 55.3312C78.1502 55.3256 78.161 55.3297 78.1082 55.3673C78.0167 55.5262 77.9782 55.6476 77.9393 55.7631C77.939 55.7571 77.9503 55.7534 77.8876 55.782C77.7221 56.0082 77.6194 56.2058 77.5164 56.3974C77.5161 56.3915 77.5276 56.3886 77.4655 56.4134C77.3353 56.4959 77.2672 56.5536 77.1721 56.663C76.9196 56.9254 76.694 57.1361 76.4199 57.393C76.3281 57.516 76.2848 57.5929 76.2416 57.6697C76.2416 57.6697 76.2475 57.6597 76.192 57.6723C76.0319 57.7508 75.9275 57.8167 75.8243 57.8769C75.8257 57.8712 75.8374 57.8695 75.7717 57.874C75.6023 57.9502 75.4987 58.0218 75.3985 58.0878C75.4019 58.0822 75.415 58.0826 75.3243 58.0802C74.1049 58.2039 72.9763 58.3301 71.837 58.4649C71.8263 58.4735 71.8042 58.4899 71.8042 58.4899Z" fill="#38548C"/>
<path d="M81.1306 135.498C80.4062 136.119 79.5764 136.103 78.6102 135.781C78.4789 135.587 78.4526 135.51 78.4488 135.375C78.3614 134.245 78.0737 133.157 78.1705 132.105C78.7422 125.893 77.8095 119.812 76.7901 113.724C75.9328 108.604 74.5631 103.505 75.8261 98.2546C75.8273 98.2599 75.8177 98.2649 75.8681 98.2255C75.9554 98.0659 75.9923 97.9458 76.0523 97.7556C77.174 95.599 78.8025 94.1409 81.1746 93.4432C83.4665 93.0564 85.6743 92.7101 87.8724 92.3099C89.9968 91.923 92.1111 91.4806 94.2265 91.0681C94.2233 91.0737 94.2112 91.0691 94.291 91.0638C94.5712 90.9902 94.7716 90.9219 94.9676 90.8579C94.9632 90.8621 94.9512 90.8598 95.0233 90.8575C95.3248 90.8119 95.5543 90.7686 95.8573 90.6844C97.3994 89.8237 98.868 89.0041 100.379 88.1542C100.423 87.4554 100.246 87.2897 99.3027 87.4229C95.2749 87.9919 91.2583 87.8168 87.1527 87.3088C85.6786 87.0492 84.284 86.8474 82.911 86.5466C80.96 86.1192 79.0249 85.6189 77.0884 85.15C77.0938 85.1502 77.0951 85.161 77.1027 85.0904C77.0299 84.907 76.9493 84.7942 76.8453 84.6045C76.9721 83.6828 77.1225 82.8381 77.3675 81.9905C77.9035 81.9837 78.3448 81.9797 78.8675 81.9941C79.9807 82.241 81.0124 82.4694 82.0778 82.7553C82.698 82.957 83.2845 83.1011 83.8657 83.2466C83.8605 83.2481 83.8541 83.2393 83.9128 83.292C88.1407 84.5084 92.3935 84.7539 96.6814 84.3963C97.8498 84.2989 98.9944 83.9151 100.147 83.667C100.143 83.6713 100.133 83.6681 100.209 83.6726C100.523 83.6018 100.759 83.5265 100.992 83.4555C100.989 83.4598 100.978 83.457 101.051 83.4604C101.35 83.3934 101.576 83.3231 101.88 83.2361C105.045 82.1064 107.801 80.4478 110.053 78.056C111.228 76.8085 112.232 75.3999 113.339 74.0129C113.399 73.8105 113.432 73.6594 113.466 73.5143C113.465 73.5204 113.456 73.5287 113.5 73.483C113.589 73.3201 113.634 73.2029 113.677 73.0915C113.676 73.0974 113.666 73.1039 113.712 73.0753C113.803 72.9899 113.847 72.933 113.891 72.882C113.89 72.8879 113.879 72.8921 113.932 72.8405C114.094 72.4647 114.202 72.1405 114.311 71.8224C114.31 71.8285 114.301 71.8361 114.363 71.7956C114.74 70.7185 115.054 69.6819 115.369 68.6512C115.37 68.6572 115.362 68.6663 115.4 68.5968C115.486 68.2139 115.532 67.9005 115.58 67.5934C115.58 67.5997 115.572 67.6095 115.621 67.5466C115.707 66.6047 115.745 65.7257 115.697 64.8403C112.815 64.4048 110.614 62.9781 108.835 60.7298C108.783 60.6199 108.761 60.576 108.714 60.4875C108.585 60.3593 108.481 60.2759 108.383 60.1952C108.389 60.198 108.393 60.2092 108.387 60.1449C108.339 59.9594 108.297 59.8384 108.238 59.6387C107.358 57.7236 107.373 55.8239 107.85 53.848C107.929 53.6919 107.97 53.5815 108.049 53.4105C108.113 53.1642 108.141 52.9786 108.21 52.7646C108.306 52.6967 108.353 52.6495 108.439 52.5582C108.547 52.4216 108.609 52.3216 108.719 52.1719C109.172 51.225 109.041 50.938 108.115 50.9556C104.376 51.0267 100.668 50.7747 96.9444 49.9601C96.7026 49.8945 96.52 49.8662 96.2955 49.7829C96 49.6219 95.7465 49.5159 95.4496 49.3696C95.2992 49.2813 95.1922 49.2332 95.0434 49.1435C94.898 49.0468 94.7944 48.9917 94.6374 48.9007C94.4596 48.8362 94.3353 48.8076 94.2169 48.7791C94.2228 48.7791 94.2271 48.7902 94.2017 48.7353C94.1158 48.6272 94.0553 48.5741 93.9509 48.4844C93.754 48.3375 93.601 48.2273 93.4054 48.075C93.2997 47.984 93.2367 47.9351 93.1307 47.852C92.9897 47.7678 92.8917 47.7179 92.7716 47.5925C92.6525 47.2738 92.5556 47.0307 92.4329 46.7673C92.3739 46.7187 92.3418 46.689 92.3157 46.6612C92.3206 46.6644 92.3207 46.6761 92.3171 46.6005C92.1008 46.1469 91.8881 45.7689 91.6808 45.3936C91.6861 45.3962 91.6841 45.4079 91.687 45.3359C91.6148 45.0951 91.5395 44.9263 91.4703 44.7595C91.4762 44.7615 91.4704 44.7726 91.478 44.6824C91.0932 42.6139 90.758 40.6217 90.2834 38.6633C90.0592 37.7381 89.5679 36.8777 89.1572 35.9193C88.2469 34.0083 86.9089 32.5225 85.375 31.2407C84.4849 30.4969 83.3521 29.6206 82.1946 30.059C80.8543 30.5667 79.7019 31.5704 78.4016 32.3476C78.0615 32.4641 77.7877 32.5916 77.5145 32.7131C77.515 32.7069 77.5272 32.7088 77.4774 32.7325C77.3852 32.8146 77.3429 32.873 77.303 32.926C77.3055 32.9206 77.3172 32.9192 77.2536 32.9284C77.0855 33.0056 76.9811 33.0737 76.8793 33.1362C76.8819 33.1308 76.894 33.132 76.8304 33.1402C76.6623 33.2166 76.5578 33.2847 76.4561 33.3475C76.4589 33.3421 76.471 33.3427 76.4083 33.3538C76.2404 33.4313 76.1351 33.4976 76.0329 33.5587C76.036 33.5534 76.0482 33.5539 75.9856 33.5653C75.8173 33.6429 75.7117 33.709 75.6097 33.77C75.6132 33.765 75.6256 33.7647 75.5624 33.7743C75.3941 33.8515 75.2891 33.9193 75.187 33.9815C75.19 33.9761 75.2024 33.9759 75.1381 33.9925C74.9682 34.088 74.8626 34.1668 74.6958 34.279C74.1908 34.484 73.7471 34.6556 73.2395 34.8357C73.0697 34.9107 72.9638 34.9773 72.8614 35.0391C72.8649 35.0343 72.8768 35.0349 72.8063 35.0378C72.5662 35.1123 72.3966 35.1839 72.2285 35.2492C72.2299 35.243 72.2404 35.2501 72.1773 35.2582C72.0101 35.3333 71.9061 35.4004 71.8047 35.462C71.8073 35.4566 71.819 35.4594 71.7364 35.4613C70.9981 35.7464 70.3423 36.0296 69.6901 36.3084C69.6937 36.3038 69.7052 36.3041 69.6344 36.297C69.2954 36.4077 69.0272 36.5254 68.6697 36.6654C67.9902 36.8532 67.3999 37.0185 66.7468 37.1827C66.4858 37.2436 66.2879 37.3057 66.0943 37.3636C66.0985 37.3594 66.1103 37.3615 66.02 37.3593C65.0672 37.5726 64.2047 37.7881 63.346 37.999C63.3497 37.9943 63.3614 37.9968 63.2693 37.9901C62.8625 38.0116 62.5433 38.0151 62.2339 38.0718C56.2546 39.1687 50.2857 39.2179 44.3212 37.9451C44.0274 37.8824 43.681 38.0659 43.2916 38.154C43.1787 38.185 43.1333 38.1968 43.0214 38.2161C42.844 38.2914 42.7332 38.3591 42.6235 38.421C42.6246 38.4153 42.6359 38.4122 42.6033 38.4475C42.4766 38.5697 42.3826 38.6565 42.2078 38.7655C40.7348 39.5165 39.3332 40.2284 37.9519 40.9776C34.8707 42.649 31.8119 44.362 28.7198 46.0128C26.8919 46.9887 25.061 47.9812 23.1542 48.7822C20.3955 49.9411 17.7473 51.0844 16.0371 53.814C14.2505 56.6656 12.1754 59.3365 10.1817 62.1394C8.57946 64.5607 7.30157 67.0595 6.53327 69.8631C5.63891 72.1521 5.62102 74.4304 6.20923 76.8143C6.44542 77.5307 6.67296 78.1667 6.8972 78.8038C6.89391 78.8049 6.90106 78.8014 6.90142 78.8582C7.01374 79.0496 7.1257 79.1841 7.26619 79.3981C8.05238 80.532 8.81004 81.5865 9.59624 82.7111C10.5007 83.7163 11.3765 84.6514 12.2659 85.5891C12.2794 85.5917 12.363 85.5778 12.3669 85.5714C12.3709 85.5649 12.3785 85.5518 12.4229 85.6089C12.7182 85.9078 12.9364 86.2017 13.2251 86.3835C15.7074 87.9461 18.1435 89.5965 20.7143 90.9993C22.4532 91.9482 24.3869 92.5401 26.2578 93.3494C26.4496 93.5245 26.6009 93.688 26.7866 93.7522C30.1761 94.9237 33.6657 95.3921 37.2276 94.9902C38.272 94.8724 39.2718 94.3592 40.3631 94.0031C41.5277 93.2338 42.6844 92.5652 43.702 91.7277C45.8675 89.9454 47.1522 87.6231 47.6268 84.793C47.8271 83.2963 48.2356 81.8164 48.0735 80.4018C47.768 77.7361 47.1337 75.1079 46.6267 72.3872C46.3907 71.3446 46.1641 70.3789 45.9218 69.3401C45.651 68.2429 45.4091 67.2153 45.1386 66.1954C44.0325 62.0246 43.3172 57.8113 43.7021 53.4723C43.7765 52.6337 43.8318 51.7933 43.9398 50.8913C45.032 49.8366 46.0583 49.7832 47.0488 50.7693C47.0493 51.6045 47.0975 52.3454 47.029 53.0752C46.7248 56.3187 47.0027 59.5251 47.7025 62.6874C48.1013 64.4899 48.6879 66.2507 49.1856 68.0267C49.1812 68.023 49.183 68.0118 49.178 68.0993C49.5143 69.2263 49.8556 70.2657 50.2314 71.359C50.3134 71.4838 50.3608 71.5548 50.4095 71.7231C50.4118 72.1458 50.413 72.4711 50.4293 72.8012C50.4446 72.806 50.4511 72.8977 50.4486 72.891C50.4462 72.8844 50.4502 72.8708 50.4481 72.9479C50.5205 73.2636 50.5951 73.5023 50.6652 73.7365C50.6608 73.7321 50.6631 73.7199 50.6583 73.8008C50.7293 74.188 50.8051 74.4942 50.8755 74.7957C50.8702 74.7909 50.8674 74.7769 50.861 74.8701C51.0045 76.0359 51.1441 77.11 51.3061 78.1806C51.8071 81.4928 51.3789 84.7295 50.5049 88.0225C50.3078 88.5947 50.1399 89.0787 49.9466 89.6119C49.8807 89.764 49.8402 89.8669 49.7661 90.0233C49.67 90.186 49.6076 90.2953 49.5027 90.4617C47.889 93.0344 46.0943 95.3248 43.2973 96.6544C43.2851 96.6922 43.2655 96.7692 43.2615 96.771C43.2575 96.7729 43.2522 96.7799 43.1621 96.7835C42.8928 96.808 42.7136 96.8289 42.5189 96.8794C42.4802 96.9489 42.448 96.9791 42.4114 96.9954C42.4163 96.9912 42.429 96.9905 42.3666 96.997C42.2067 97.075 42.1092 97.1464 41.947 97.2206C41.7804 97.2901 41.6784 97.3569 41.5055 97.418C41.2679 97.4817 41.1012 97.5512 40.8481 97.6212C37.276 98.5453 33.7512 98.7807 30.2177 98.0088C28.1281 97.5523 26.079 96.9108 24.0164 96.3543C24.0212 96.356 24.0295 96.3617 23.9826 96.3086C23.4191 96.1603 22.9732 95.2739 22.3521 96.1967C22.1623 96.6248 21.9932 96.9721 21.768 97.3469C21.4229 98.0251 21.134 98.6758 20.8473 99.3214C20.8496 99.3164 20.856 99.3075 20.8073 99.3489C20.717 99.5101 20.6755 99.6299 20.6361 99.7446C20.6382 99.7396 20.6443 99.7306 20.596 99.7725C20.5062 99.9337 20.4647 100.053 20.4251 100.168C20.427 100.163 20.4335 100.154 20.3804 100.192C20.2888 100.351 20.2503 100.473 20.2142 100.591C20.2166 100.586 20.2237 100.579 20.1717 100.599C20.0797 100.681 20.0398 100.743 20.0011 100.8C20.0024 100.796 20.0095 100.79 19.9662 100.836C19.8789 100.997 19.8348 101.112 19.7914 101.224C19.792 101.219 19.7986 101.214 19.7451 101.256C19.6215 101.415 19.5514 101.531 19.4561 101.711C18.2858 103.533 17.1959 105.329 15.9806 107.036C14.7459 108.77 13.3875 110.416 12.0226 112.094C11.7534 112.272 11.5449 112.459 11.2791 112.681C11.0444 112.977 10.867 113.235 10.6953 113.49C10.7009 113.485 10.7108 113.475 10.6385 113.488C9.83271 114.274 9.09926 115.046 8.37115 115.815C8.3765 115.812 8.38589 115.804 8.32235 115.812C8.15355 115.889 8.04827 115.957 7.94678 116.023C7.95056 116.02 7.95734 116.014 7.91365 116.045C7.82849 116.133 7.78701 116.191 7.70155 116.303C6.41161 117.446 5.14934 118.516 3.9248 119.628C2.91168 120.548 1.81742 120.861 0.491098 120.217C0.339964 119.91 0.232556 119.657 0.134155 119.322C0.197526 117.877 1.18664 117.174 2.10276 116.395C2.95288 115.672 3.74761 114.883 4.56979 114.12C4.57284 114.116 4.5783 114.107 4.63729 114.082C4.92827 113.866 5.16026 113.676 5.44784 113.473C5.56723 113.421 5.63101 113.381 5.73109 113.301C5.79164 113.196 5.81589 113.13 5.88707 113.041C5.99221 112.974 6.0271 112.915 6.08403 112.819C6.1865 112.753 6.22541 112.698 6.29349 112.606C6.39955 112.54 6.44115 112.485 6.53536 112.413C6.84466 112.202 7.08425 111.995 7.32051 111.79C7.31719 111.793 7.31127 111.799 7.3669 111.771C7.53134 111.621 7.64014 111.498 7.79234 111.351C7.89025 111.283 7.9314 111.231 8.0157 111.132C8.16979 110.903 8.26736 110.711 8.42608 110.497C8.5925 110.347 8.69779 110.219 8.80044 110.096C8.79779 110.101 8.78658 110.107 8.83857 110.085C8.93184 110.001 8.9731 109.94 9.01188 109.884C9.00941 109.89 8.99767 109.895 9.04891 109.872C9.14201 109.789 9.18386 109.728 9.22315 109.673C9.22061 109.679 9.20875 109.683 9.27203 109.661C9.40141 109.579 9.46751 109.519 9.5593 109.404C9.74012 109.109 9.89526 108.87 10.0566 108.624C10.0628 108.618 10.0741 108.605 10.1352 108.571C10.4111 108.357 10.6592 108.203 10.8356 107.99C14.0397 104.12 16.8304 99.9918 18.7666 95.3238C19.062 94.6117 18.8511 94.1925 18.2476 93.8383C16.8811 93.0363 15.5105 92.2406 14.1618 91.4093C10.8091 89.3428 7.83197 86.8648 5.59932 83.5673C5.16751 82.9295 4.63084 82.3628 4.10903 81.6982C3.81462 81.0457 3.5537 80.4581 3.29728 79.8219C3.28491 79.6456 3.26803 79.518 3.26472 79.3061C3.24084 78.9101 3.23418 78.591 3.16123 78.2878C2.35365 74.9316 2.42263 71.6019 3.41049 68.2893C3.55976 67.7887 3.6182 67.2611 3.72198 66.7504C3.72531 66.7548 3.71432 66.7559 3.76077 66.7146C3.84701 66.5578 3.88681 66.4423 3.93006 66.3284C3.9335 66.3299 3.92665 66.3281 3.9713 66.2674C4.05935 65.9625 4.10275 65.7182 4.14533 65.4791C4.14453 65.4844 4.13775 65.4926 4.18971 65.4541C4.28078 65.2941 4.31989 65.1726 4.35741 65.0563C4.35581 65.0614 4.34735 65.068 4.39766 65.0457C4.48813 64.9629 4.52829 64.9024 4.56951 64.8469C4.57057 64.8518 4.56081 64.8541 4.59984 64.8073C4.68304 64.6489 4.72722 64.5373 4.77262 64.4252C4.77262 64.4252 4.77339 64.422 4.82189 64.3715C4.91114 64.1415 4.9519 63.962 4.99176 63.7878C4.99087 63.7932 4.98359 63.8012 5.03339 63.761C5.12305 63.6008 5.16291 63.4808 5.20307 63.3659C5.20337 63.3709 5.19432 63.3753 5.24481 63.3361C5.33482 63.1772 5.37434 63.0577 5.41406 62.943C5.41425 62.9479 5.40486 62.951 5.46862 62.9197C5.66731 62.6949 5.80224 62.5015 5.97072 62.25C8.08815 59.1665 10.1918 56.1543 12.24 53.1049C12.6744 52.4581 12.9064 51.6754 13.2306 50.8664C12.7861 48.1666 12.3427 45.5556 11.8952 42.856C11.3255 41.3091 11.9466 39.874 11.9789 38.3395C12.0397 37.0376 12.0977 35.8236 12.2111 34.5526C12.5897 32.8781 12.9129 31.2606 13.2741 29.5848C14.018 27.7795 14.5859 25.9601 15.4571 24.2998C17.6734 20.0755 20.3335 16.1488 24.0817 13.1031C26.0382 11.5134 28.1189 10.0771 30.0994 8.51561C30.4454 8.24286 30.8196 7.65317 30.7597 7.27691C30.4239 5.16808 31.2893 3.60977 32.9336 2.50051C34.2334 1.62368 35.6889 0.977555 37.1519 0.25C38.6787 0.371286 40.1287 0.471544 41.5752 0.570293C41.5716 0.568777 41.566 0.563501 41.5953 0.610669C41.6871 0.697012 41.7496 0.736184 41.8734 0.803572C42.1849 1.0173 42.4351 1.20281 42.6942 1.44086C42.7565 1.61854 42.7897 1.75802 42.8664 1.86663C43.7056 3.05352 44.7827 2.37745 45.8728 2.24083C46.2578 2.1806 46.5621 2.11281 46.8623 2.04843C46.8582 2.05183 46.8475 2.05106 46.9389 2.05201C47.5862 1.97873 48.1476 1.93276 48.6971 1.82567C52.2734 1.12866 55.8695 0.976174 59.4846 1.4353C60.7685 1.59834 62.0442 1.82555 63.4066 2.03884C64.2878 2.26184 65.0859 2.46945 65.9095 2.74467C66.2747 2.98131 66.6144 3.15034 66.9492 3.31989C66.9443 3.3204 66.9388 3.3122 66.9922 3.36184C67.7903 3.73252 68.5351 4.05354 69.2751 4.37615C69.2704 4.37774 69.2664 4.36863 69.3092 4.41493C69.4692 4.50372 69.5863 4.54621 69.6983 4.5887C69.6932 4.5887 69.6879 4.57996 69.7292 4.62854C69.8893 4.71857 70.0081 4.76002 70.1219 4.80015C70.1169 4.79883 70.111 4.79011 70.1356 4.83871C70.2189 4.92879 70.2776 4.97028 70.3314 5.01254C70.3265 5.01331 70.3235 5.00368 70.3707 5.03941C70.5688 5.09978 70.7196 5.12443 70.9248 5.20432C72.0592 6.03249 73.1895 6.74504 74.2085 7.59159C76.033 9.10739 77.7905 10.7039 79.5733 12.2885C79.5706 12.3103 79.504 12.2907 79.5989 12.396C79.7599 12.5688 79.826 12.6364 79.8992 12.7293C79.986 12.8076 80.0656 12.8605 80.1757 12.9908C80.2259 13.12 80.2459 13.1717 80.2741 13.2685C80.3874 13.4028 80.4923 13.4921 80.7306 13.6109C80.9535 13.6567 81.0431 13.6728 81.1577 13.6894C81.2331 13.6926 81.283 13.6887 81.3284 13.6805C81.3245 13.6832 81.3151 13.6817 81.3945 13.6754C81.9891 13.4589 82.5042 13.2487 83.0177 13.0428C83.0161 13.047 83.0075 13.0441 83.0779 13.0426C83.3169 12.97 83.4855 12.8988 83.6522 12.8318C83.6501 12.8359 83.6419 12.8321 83.7267 12.8329C86.8444 11.9848 89.8773 11.1359 92.9967 10.2754C94.1798 10.0591 95.2765 9.85447 96.4698 9.65377C99.526 9.81682 102.486 9.97592 105.516 10.1592C106.127 10.4148 106.748 10.5447 107.192 10.897C108.435 11.8828 109.606 12.9605 110.8 14.0579C110.84 14.2537 110.885 14.3936 110.928 14.5297C110.926 14.526 110.921 14.5189 110.952 14.5631C111.038 14.6535 111.093 14.6997 111.144 14.7406C111.141 14.7353 111.134 14.7256 111.138 14.8115C111.342 16.4485 111.667 17.9971 111.698 19.5514C111.719 20.6454 111.338 21.7471 111.135 22.9044C111.131 23.0421 111.129 23.1209 111.08 23.2527C110.633 23.9865 110.232 24.6674 109.793 25.3782C108.669 26.5687 107.583 27.7293 106.489 28.8888C106.481 28.8878 106.465 28.8922 106.406 28.9288C105.699 29.4357 105.084 29.96 104.398 30.3657C102.75 31.3416 101.069 32.2618 99.3434 33.1973C99.1454 33.2441 99.0057 33.2981 98.8694 33.3471C98.8728 33.3421 98.8848 33.3438 98.8145 33.3475C98.574 33.422 98.4039 33.4928 98.2359 33.5578C98.2379 33.5519 98.2493 33.5566 98.1877 33.5688C98.0201 33.6454 97.9141 33.7099 97.8115 33.7693C97.815 33.7643 97.8273 33.7645 97.7657 33.7791C97.5971 33.858 97.49 33.9221 97.3881 33.9821C97.3931 33.9779 97.4063 33.977 97.3186 33.9751C96.0849 34.3298 94.9389 34.6866 93.7954 35.0377C93.7979 35.0322 93.8084 35.0384 93.74 35.0414C93.4447 35.1623 93.2178 35.2803 92.9907 35.4814C93.039 35.8366 93.0873 36.1086 93.1443 36.3977C93.1621 36.4517 93.1664 36.4895 93.1624 36.5224C93.159 36.5169 93.1617 36.5041 93.1661 36.5851C93.3119 37.1126 93.4533 37.5591 93.5896 38.0015C93.5845 37.9973 93.5878 37.9845 93.5876 38.0736C93.8714 39.4499 94.1553 40.7372 94.4348 42.0196C94.4302 42.0148 94.4329 42.0018 94.4295 42.0825C94.5012 42.4691 94.5763 42.7748 94.6462 43.0764C94.641 43.0723 94.6446 43.0594 94.648 43.1345C94.7488 43.3784 94.8463 43.5471 94.9712 43.78C95.524 44.5788 96.0495 45.3134 96.5977 46.0891C96.6621 46.1779 96.7112 46.2163 96.762 46.2458C96.7564 46.2463 96.7552 46.2352 96.8084 46.2862C97.4729 46.5975 98.0636 47.0037 98.699 47.0931C101.551 47.4948 104.411 47.8561 107.277 48.1362C110.004 48.4026 112.742 48.5501 115.562 48.7391C116.044 48.6844 116.437 48.6405 116.89 48.6433C117.827 48.9298 118.706 49.1694 119.591 49.4132C119.597 49.4174 119.61 49.4232 119.655 49.4568C119.801 49.5337 119.903 49.5771 120.01 49.625C120.016 49.6296 120.028 49.6363 120.063 49.6893C120.279 49.8429 120.46 49.9435 120.645 50.0484C120.65 50.0528 120.66 50.0595 120.682 50.1205C120.889 50.3456 121.074 50.5096 121.302 50.7322C121.963 51.8118 122.581 52.8328 123.195 53.9449C123.68 56.1857 123.334 58.3048 122.952 60.4929C123.029 60.8675 123.112 61.172 123.193 61.4717C123.191 61.4669 123.187 61.4579 123.181 61.5492C123.39 63.2397 123.682 64.8329 123.802 66.4391C124.024 69.4045 123.651 72.3299 122.977 75.2152C122.979 75.2113 122.983 75.203 122.946 75.2461C122.866 75.5369 122.825 75.7844 122.758 76.1082C122.294 78.349 120.807 79.8967 119.486 81.5096C118.587 82.607 117.461 83.5178 116.372 84.5476C115.645 84.9799 114.98 85.3767 114.254 85.7854C114.087 85.8659 113.983 85.9344 113.883 85.9982C113.886 85.9936 113.897 85.9926 113.83 86.0046C113.597 86.1546 113.431 86.2926 113.193 86.4243C112.943 86.4738 112.764 86.5296 112.51 86.6021C111.646 86.9766 110.859 87.3344 110.076 87.6883C110.08 87.6845 110.092 87.6841 110.005 87.6878C108.655 87.965 107.388 88.2213 106.131 88.5194C105.532 88.6614 104.952 88.8829 104.329 89.1235C103.898 89.5122 103.438 89.7944 103.116 90.1885C101.865 91.716 100.227 92.6544 98.3776 93.4035C98.1419 93.4774 97.9744 93.5451 97.8112 93.6087C97.8155 93.6047 97.8272 93.6043 97.7646 93.616C97.5961 93.6935 97.4902 93.7595 97.3889 93.8219C97.3934 93.8183 97.4049 93.8163 97.3325 93.8179C97.09 93.8919 96.92 93.9642 96.7547 94.0333C96.7595 94.03 96.7709 94.0285 96.6933 94.0237C96.3785 94.0954 96.1414 94.1719 95.9088 94.2446C95.9133 94.2408 95.925 94.2408 95.8387 94.2357C95.2038 94.3767 94.6553 94.5227 94.1111 94.6655C94.1154 94.6622 94.1261 94.663 94.0289 94.6639C90.7849 95.097 87.6337 95.5 84.4953 95.9854C83.8561 96.0842 83.2647 96.4928 82.5697 96.774C81.0615 97.0491 80.1855 97.9816 79.4941 99.2375C79.3659 99.5037 79.2873 99.7324 79.2086 99.9558C79.2085 99.9506 79.2157 99.9429 79.1574 99.9962C78.3515 102.416 78.3922 104.769 79.2181 107.199C79.2931 107.94 79.3614 108.593 79.4258 109.315C79.8474 111.664 80.2731 113.942 80.6905 116.304C80.7578 116.755 80.8334 117.123 80.9059 117.564C80.909 117.731 80.9152 117.827 80.9161 118.016C81.5703 123.683 81.8968 129.261 81.1146 134.921C81.1124 135.035 81.1126 135.081 81.1146 135.188C81.1212 135.332 81.1259 135.415 81.1306 135.498ZM30.5752 11.9891C30.5752 11.9891 30.5912 11.9872 30.5239 12.0667C30.4794 12.1199 30.4324 12.1706 30.2953 12.3297C29.2526 13.1262 28.2099 13.9227 27.0864 14.7297C26.9823 14.8091 26.8783 14.8886 26.7669 14.9503C26.7669 14.9503 26.7846 14.943 26.7222 15.0399C26.6767 15.101 26.6312 15.1621 26.5097 15.3376C25.6245 16.2017 24.7393 17.0657 23.7731 18.0055C23.7126 18.0485 23.6521 18.0914 23.5917 18.1137C23.5917 18.1137 23.6123 18.1138 23.5358 18.2263C23.4847 18.3012 23.4336 18.3761 23.3478 18.5783C22.3783 19.8487 21.4089 21.1191 20.3811 22.4078C20.3283 22.466 20.2756 22.5241 20.2144 22.5647C20.2144 22.5647 20.2319 22.5563 20.1712 22.665C20.1147 22.7759 20.0581 22.8867 20.0096 22.9772C20.0096 22.9772 20.0299 22.9852 19.9219 23.0663C19.8109 23.2562 19.6999 23.446 19.58 23.6197C19.58 23.6197 19.5962 23.6109 19.5356 23.72C19.4803 23.8318 19.425 23.9436 19.3623 24.0385C19.3623 24.0385 19.3792 24.0311 19.3285 24.1453C19.2704 24.2557 19.2123 24.366 19.1697 24.4714C19.1697 24.4714 19.1747 24.4869 19.0494 24.5501C18.7358 25.231 18.4223 25.9118 18.1 26.5789C18.1 26.5789 18.1138 26.5702 18.0512 26.6784C17.9994 26.7918 17.9476 26.9053 17.8938 27.0032C17.8938 27.0032 17.9093 27.0011 17.8 27.0988C17.0955 29.2513 16.3717 31.3979 15.7053 33.5621C15.5907 33.9342 15.7207 34.3817 15.72 34.9234C15.6594 35.038 15.5989 35.1525 15.4606 35.4015C14.7061 38.3146 14.8483 41.2546 15.2141 44.1981C15.2378 44.3894 15.4114 44.5621 15.5536 44.9261C15.7712 45.9922 15.9889 47.0584 16.291 48.1043C16.4051 48.1177 16.5191 48.131 16.6156 48.1573C16.6156 48.1573 16.6025 48.1398 16.7206 48.0982C16.8302 48.0382 16.9398 47.9782 17.0434 47.9356C17.0434 47.9356 17.026 47.9297 17.142 47.8825C17.2527 47.8245 17.3633 47.7664 17.4674 47.7266C17.4674 47.7266 17.4491 47.7201 17.5645 47.6714C17.6752 47.6133 17.7859 47.5552 17.8909 47.5154C17.8909 47.5154 17.8726 47.5097 17.9846 47.454C18.0968 47.3987 18.209 47.3435 18.3138 47.3058C18.3138 47.3058 18.2962 47.2984 18.4097 47.2463C18.5211 47.1901 18.6325 47.1339 18.738 47.0954C18.738 47.0954 18.7203 47.0894 18.8313 47.0322C18.9433 46.9774 19.0552 46.9225 19.1557 46.8823C19.1557 46.8823 19.1411 46.8708 19.3012 46.8565C19.8087 46.5946 20.3161 46.3327 20.8903 46.0248C20.8903 46.0248 20.9699 46.0091 21.1205 45.9894C21.383 45.8562 21.6455 45.7229 21.905 45.6055C21.905 45.6055 21.8893 45.6024 22.0056 45.5571C22.116 45.4991 22.2264 45.4412 22.3309 45.4006C22.3309 45.4006 22.3134 45.3946 22.4269 45.3424C22.5383 45.286 22.6497 45.2296 22.7546 45.1911C22.7546 45.1911 22.7367 45.1847 22.8496 45.131C22.9611 45.0749 23.0726 45.0188 23.1781 44.9803C23.1781 44.9803 23.1604 44.9742 23.272 44.9183C23.3837 44.8628 23.4954 44.8073 23.6009 44.769C23.6009 44.769 23.5836 44.7627 23.6952 44.7072C23.8066 44.6514 23.918 44.5956 24.0236 44.5569C24.0236 44.5569 24.0066 44.5509 24.1179 44.4948C24.2297 44.4398 24.3416 44.3847 24.4475 44.3473C24.4475 44.3473 24.4299 44.3414 24.5394 44.2821C24.6514 44.2279 24.7633 44.1737 24.8704 44.1354C24.8704 44.1354 24.8545 44.1305 24.961 44.066C25.0737 44.0134 25.1865 43.9608 25.2925 43.9242C25.2925 43.9242 25.2765 43.9174 25.3867 43.8599C25.4983 43.8053 25.6098 43.7507 25.7162 43.7127C25.7162 43.7127 25.6995 43.7074 25.8078 43.6457C25.9202 43.5919 26.0326 43.5382 26.1385 43.5013C26.1385 43.5013 26.1217 43.4948 26.2318 43.4368C26.3436 43.3822 26.4553 43.3276 26.5588 43.2876C26.5588 43.2876 26.5443 43.2793 26.6784 43.2441C26.8502 43.1792 27.022 43.1145 27.1906 43.068C27.1906 43.068 27.1723 43.0649 27.2519 42.9933C27.3032 42.9434 27.3544 42.8935 27.4086 42.8603C27.4086 42.8603 27.3919 42.8633 27.4966 42.7955C27.6101 42.7436 27.7236 42.6917 27.8302 42.6562C27.8302 42.6562 27.8138 42.6494 27.9233 42.5904C28.0352 42.536 28.147 42.4816 28.2534 42.4439C28.2534 42.4439 28.2369 42.4384 28.3446 42.3756C28.4574 42.3227 28.5702 42.2698 28.676 42.2333C28.676 42.2333 28.6595 42.2264 28.7696 42.1679C28.8813 42.1126 28.993 42.0572 29.0972 42.0192C29.0972 42.0192 29.08 42.0117 29.1938 41.9606C29.3043 41.903 29.4149 41.8453 29.5187 41.8044C29.5187 41.8044 29.502 41.7977 29.6168 41.749C29.7273 41.6911 29.8378 41.6333 29.939 41.5898C29.939 41.5898 29.9247 41.5805 30.0659 41.5619C30.3682 41.3785 30.6706 41.1952 31.1245 40.97C31.959 40.4634 32.7898 39.9506 33.6286 39.4513C38.7949 36.3763 43.9569 33.2941 49.1321 30.2342C53.943 27.3897 58.7686 24.5699 63.6309 21.7086L63.7093 21.7001C63.7093 21.7001 63.7848 21.723 63.7666 21.7315C63.7666 21.7315 63.7581 21.7133 63.8704 21.6589C63.9816 21.6023 64.0928 21.5457 64.1941 21.5037C64.1941 21.5037 64.1795 21.4937 64.3361 21.4726C64.9924 21.1216 65.6486 20.7707 66.3025 20.433C66.3025 20.433 66.29 20.4276 66.43 20.4065C66.6704 20.2694 66.9108 20.1323 67.1532 20.0135C67.1532 20.0135 67.1348 20.0155 67.2174 19.9469C67.2689 19.8972 67.3204 19.8475 67.3702 19.8135C67.3702 19.8135 67.3545 19.8119 67.4652 19.755C67.5768 19.7001 67.6885 19.6452 67.7939 19.6072C67.7939 19.6072 67.7769 19.6009 67.8882 19.5447C67.9997 19.4891 68.1113 19.4335 68.2168 19.3953C68.2168 19.3953 68.1993 19.3894 68.3104 19.3324C68.4223 19.2771 68.5342 19.2219 68.6399 19.1844C68.6399 19.1844 68.6221 19.1783 68.7324 19.12C68.8446 19.0655 68.9567 19.011 69.0631 18.9734C69.0631 18.9734 69.0462 18.9676 69.1549 18.9065C69.2673 18.8527 69.3797 18.7989 69.4857 18.7621C69.4857 18.7621 69.4687 18.7557 69.5778 18.6956C69.69 18.6417 69.8022 18.5878 69.9088 18.5504C69.9088 18.5504 69.8923 18.5447 70.0001 18.4822C70.1126 18.4286 70.2251 18.3749 70.3308 18.3382C70.3308 18.3382 70.3139 18.3314 70.4247 18.2748C70.5364 18.22 70.648 18.1652 70.749 18.1235C70.749 18.1235 70.7359 18.1129 70.8948 18.099C71.3399 17.8878 71.785 17.6767 72.2288 17.4804C72.2288 17.4804 72.2139 17.4789 72.3299 17.4329C72.4408 17.376 72.5517 17.319 72.655 17.2777C72.655 17.2777 72.6394 17.2702 72.7742 17.2367C72.9457 17.171 73.1172 17.1052 73.2794 17.0509C73.2794 17.0509 73.2682 17.0413 73.4085 17.0206C73.6507 16.8871 73.8929 16.7536 74.1325 16.6359C74.1325 16.6359 74.1167 16.6333 74.2327 16.5873C74.343 16.529 74.4532 16.4707 74.5566 16.4293C74.5566 16.4293 74.5399 16.4224 74.6568 16.3784C74.767 16.32 74.8772 16.2616 74.9791 16.2168C74.9791 16.2168 74.9655 16.2084 75.117 16.1974C75.4236 16.0562 75.7303 15.9149 76.0333 15.7867C76.0333 15.7867 76.0215 15.7803 76.175 15.7741C76.4739 15.6165 76.7729 15.459 77.0899 15.1591C76.7691 14.7565 76.5059 14.2844 76.118 13.9629C73.784 12.0284 71.4215 10.1284 68.9859 8.10947C68.7934 7.99483 68.601 7.88019 68.4244 7.7573C68.4244 7.7573 68.4327 7.77311 68.3227 7.71406C68.2109 7.65885 68.099 7.60364 68.0047 7.54104C68.0047 7.54104 68.0121 7.55854 67.8989 7.50546C67.7874 7.44903 67.676 7.39259 67.5823 7.33037C67.5823 7.33037 67.5881 7.34817 67.4772 7.29095C67.3651 7.23607 67.2531 7.1812 67.1571 7.12503C67.1571 7.12503 67.1585 7.14114 67.0642 7.03128C64.9713 5.65076 62.5912 5.10255 60.0014 4.62223C57.3837 4.4896 54.7659 4.35697 51.9772 4.24814C48.5835 4.9252 45.1846 5.57757 41.8003 6.29874C41.064 6.45565 40.38 6.85886 39.6722 7.1354C39.6722 7.1354 39.6848 7.13936 39.5701 7.18458C39.4599 7.23993 39.3498 7.29527 39.2473 7.33831C39.2473 7.33831 39.2592 7.34676 39.1085 7.35972C38.8018 7.49881 38.4952 7.6379 38.1895 7.76296C38.1895 7.76296 38.2033 7.76586 38.0899 7.81546C37.9796 7.87162 37.8694 7.92777 37.7642 7.96852C37.7642 7.96852 37.7796 7.97358 37.6687 8.02893C37.5573 8.08322 37.4459 8.1375 37.3432 8.17793C37.3432 8.17793 37.357 8.18654 37.224 8.22262C37.0525 8.28668 36.881 8.35074 36.7147 8.40231C36.7147 8.40231 36.7257 8.41018 36.6106 8.45257C36.5023 8.51 36.3941 8.56744 36.2939 8.61381C36.2939 8.61381 36.3031 8.62386 36.1492 8.64331C35.7092 8.91892 35.2692 9.19453 34.8162 9.46801C34.8162 9.46801 34.8221 9.45621 34.6885 9.49169C34.5166 9.55579 34.3448 9.61989 34.1762 9.66941C34.1762 9.66941 34.1908 9.67272 34.1099 9.74111C34.0591 9.79025 34.0083 9.83939 33.9593 9.87418C33.9593 9.87418 33.9735 9.87707 33.861 9.92944C33.7499 9.98461 33.6389 10.0398 33.5517 10.0784C33.5517 10.0784 33.5683 10.1024 33.4173 10.1331C32.7549 10.5482 32.0924 10.9633 31.4261 11.3644C31.4261 11.3644 31.4404 11.3615 31.3596 11.4305C31.3096 11.4806 31.2596 11.5308 31.212 11.5668C31.212 11.5668 31.2257 11.5706 31.1123 11.6178C31.0052 11.6776 30.8982 11.7375 30.7931 11.783C30.7931 11.783 30.8072 11.7861 30.7263 11.8546C30.6766 11.9047 30.6268 11.9549 30.5752 11.9891ZM99.298 15.586C99.298 15.586 99.2801 15.5797 99.3941 15.5291C99.5054 15.473 99.6166 15.4169 99.7211 15.3757C99.7211 15.3757 99.7061 15.3688 99.8401 15.3313C100.013 15.2688 100.187 15.2063 100.35 15.1559C100.35 15.1559 100.338 15.1465 100.49 15.1392C100.797 14.9983 101.104 14.8575 101.407 14.7298C101.407 14.7298 101.395 14.7232 101.559 14.7177C102.074 14.5062 102.589 14.2947 103.101 14.0975C103.101 14.0975 103.087 14.0938 103.224 14.068C103.398 14.0037 103.571 13.9393 103.736 13.8888C103.736 13.8888 103.722 13.8798 103.887 13.8743C104.193 13.7705 104.498 13.6666 104.776 13.5067C104.781 13.4263 104.785 13.3459 104.662 13.1767C104.434 13.0885 104.213 12.9547 103.977 12.9188C99.6708 12.2627 95.4433 12.6727 91.1267 13.8975C90.8905 13.9738 90.6542 14.0501 90.4222 14.1146C90.4222 14.1146 90.4303 14.1243 90.2935 14.144C90.1211 14.206 89.9487 14.268 89.7838 14.3181C89.7838 14.3181 89.7946 14.3271 89.6196 14.328C88.8977 14.5409 88.1759 14.7539 87.4592 14.9542C87.4592 14.9542 87.4703 14.962 87.2985 14.9669C85.7306 15.531 84.1626 16.0951 82.5959 16.6469C82.5959 16.6469 82.6057 16.6546 82.442 16.6613C81.9285 16.8719 81.415 17.0825 80.9034 17.2804C80.9034 17.2804 80.9144 17.2871 80.7579 17.2953C80.3852 17.4389 80.0126 17.5825 79.6423 17.7133C79.6423 17.7133 79.6504 17.7235 79.5111 17.7447C79.2695 17.8759 79.0279 18.0071 78.7877 18.1242C78.7877 18.1242 78.8017 18.1269 78.6883 18.1764C78.5779 18.2321 78.4674 18.2877 78.3654 18.3314C78.3654 18.3314 78.3771 18.3402 78.2287 18.3553C77.9255 18.4872 77.6222 18.6192 77.2113 18.7557C77.1756 18.7591 77.1398 18.7624 76.9891 18.8071C76.8831 18.868 76.7771 18.9288 76.679 18.9767C76.679 18.9767 76.692 18.9846 76.5515 19.0053C76.3085 19.1387 76.0656 19.2721 75.825 19.3885C75.825 19.3885 75.842 19.3908 75.7289 19.4438C75.6173 19.4998 75.5058 19.5558 75.4004 19.5943C75.4004 19.5943 75.4179 19.6005 75.3066 19.6565C75.195 19.7114 75.0833 19.7663 74.9757 19.8042C74.9757 19.8042 74.9927 19.8083 74.8886 19.8771C74.7748 19.9286 74.6611 19.9802 74.5602 20.0193C74.5602 20.0193 74.5728 20.0321 74.4144 20.0499C73.969 20.2594 73.5236 20.4688 73.0804 20.6635C73.0804 20.6635 73.0952 20.6658 72.9771 20.7068C72.8676 20.7664 72.7582 20.826 72.6546 20.8687C72.6546 20.8687 72.6715 20.8745 72.5556 20.9212C72.4451 20.9793 72.3347 21.0373 72.2309 21.078C72.2309 21.078 72.2483 21.0846 72.1329 21.1325C72.0224 21.1906 71.9119 21.2486 71.8079 21.2894C71.8079 21.2894 71.8252 21.2959 71.7104 21.3451C71.5998 21.4027 71.4892 21.4604 71.3849 21.5008C71.3849 21.5008 71.4021 21.5071 71.2882 21.5584C71.177 21.615 71.0658 21.6716 70.9617 21.711C70.9617 21.711 70.979 21.7181 70.8642 21.7677C70.7532 21.8251 70.6423 21.8826 70.5382 21.9218C70.5382 21.9218 70.5564 21.9286 70.4421 21.9794C70.3311 22.0368 70.2201 22.0942 70.1158 22.134C70.1158 22.134 70.1334 22.1407 70.0192 22.1919C69.9083 22.2493 69.7974 22.3068 69.6935 22.3464C69.6935 22.3464 69.7114 22.3534 69.596 22.4018C69.4852 22.4597 69.3744 22.5176 69.2705 22.5578C69.2705 22.5578 69.2882 22.5646 69.1733 22.6138C69.0628 22.6718 68.9522 22.7298 68.8486 22.7706C68.8486 22.7706 68.8657 22.7775 68.7542 22.824C68.6473 22.8795 68.5404 22.935 68.3377 23.1064C66.619 24.0771 64.8909 25.0315 63.1839 26.0222C60.5107 27.5737 57.8472 29.1419 55.1885 30.7179C53.0856 31.9644 50.9948 33.2312 48.902 34.4944C48.569 34.6954 48.2535 34.9254 47.93 35.142C47.9625 35.2775 47.995 35.413 48.0275 35.5485C49.1623 35.5485 50.297 35.5485 51.4128 35.6238C51.6072 35.7049 51.8015 35.8558 51.996 35.8562C53.5946 35.8588 55.1932 35.8335 56.9703 35.8116C58.1162 35.6993 59.289 35.7047 60.4021 35.4495C62.5317 34.9611 64.6273 34.3245 66.7313 33.7627C66.7313 33.7627 66.7185 33.756 66.8869 33.7458C67.6115 33.465 68.3361 33.1842 69.0572 32.9169C69.0572 32.9169 69.0445 32.9113 69.1958 32.8995C69.5039 32.7601 69.8119 32.6207 70.115 32.4951C70.115 32.4951 70.1016 32.4894 70.2529 32.4782C70.5607 32.338 70.8686 32.1978 71.1714 32.071C71.1714 32.071 71.1585 32.0648 71.3212 32.0559C71.9065 31.774 72.4917 31.492 73.075 31.2257C73.075 31.2257 73.0594 31.2237 73.1765 31.1797C73.2867 31.1211 73.3969 31.0624 73.5012 31.0214C73.5012 31.0214 73.4836 31.0155 73.5977 30.9644C73.7089 30.9077 73.8201 30.8509 73.9252 30.8122C73.9252 30.8122 73.9072 30.8061 74.0195 30.7516C74.131 30.6955 74.2425 30.6395 74.3474 30.6003C74.3474 30.6003 74.3305 30.5937 74.4437 30.5413C74.5547 30.4846 74.6657 30.4278 74.7704 30.3886C74.7704 30.3886 74.7529 30.3822 74.8658 30.329C74.9768 30.272 75.0878 30.215 75.1913 30.1748C75.1913 30.1748 75.1745 30.1674 75.2907 30.1218C75.4004 30.0628 75.5101 30.0037 75.6121 29.9601C75.6121 29.9601 75.5967 29.9523 75.7272 29.9162C75.9018 29.7848 76.0764 29.6533 76.2523 29.5404C76.2523 29.5404 76.2338 29.5417 76.3073 29.479C76.3584 29.4394 76.4042 29.3943 76.5403 29.3155C76.5403 29.3155 76.6399 29.3076 76.7535 29.2525C76.8704 29.2029 76.9873 29.1533 77.0957 29.1211C77.0957 29.1211 77.0783 29.1125 77.1933 29.064C77.3031 29.0052 77.4129 28.9463 77.5155 28.9028C77.5155 28.9028 77.5001 28.8956 77.629 28.8557C77.803 28.7217 77.977 28.5878 78.1589 28.4747C78.1589 28.4747 78.1381 28.4825 78.2485 28.4248C78.3597 28.3683 78.4708 28.3118 78.5729 28.2708C78.5729 28.2708 78.5575 28.2618 78.6879 28.227C78.8618 28.0948 79.0357 27.9626 79.2078 27.8447C79.2078 27.8447 79.1936 27.8419 79.3272 27.8011C79.5069 27.6615 79.6865 27.522 79.953 27.2766C81.2141 26.4391 82.4666 25.5883 83.738 24.7669C87.1655 22.5525 90.6011 20.3506 94.0777 18.1133L94.1568 18.1055C94.1568 18.1055 94.2331 18.1286 94.2139 18.1365C94.2139 18.1365 94.206 18.1172 94.3204 18.0673C94.4309 18.0094 94.5414 17.9515 94.6425 17.9081C94.6425 17.9081 94.628 17.8987 94.778 17.8795C95.1548 17.6692 95.5316 17.4589 95.9076 17.263C95.9076 17.263 95.8935 17.2609 96.0116 17.2214C96.1206 17.1618 96.2297 17.1022 96.3365 17.0621C96.3365 17.0621 96.3169 17.0599 96.3971 16.987C96.449 16.9367 96.5009 16.8863 96.553 16.8537C96.553 16.8537 96.5353 16.854 96.6431 16.7917C96.7555 16.7379 96.8679 16.6841 96.9693 16.6449C96.9693 16.6449 96.9547 16.634 97.0969 16.6143C97.3269 16.4782 97.557 16.3422 97.7949 16.1959C97.7949 16.1959 97.802 16.2067 97.9529 16.1905C98.26 16.0516 98.567 15.9127 98.8716 15.7893C98.8716 15.7893 98.856 15.7867 98.9727 15.7419C99.0832 15.684 99.1938 15.626 99.298 15.586ZM118.113 70.5583C118.113 70.5583 118.123 70.5499 118.028 70.6554C117.987 70.8386 117.946 71.0217 117.901 71.1928C117.901 71.1928 117.911 71.1849 117.832 71.3125C117.786 71.5063 117.74 71.7001 117.656 72.0189C116.839 73.6477 116.111 75.3288 115.187 76.8937C113.614 79.5551 111.295 81.5721 108.918 83.7054C108.654 83.8398 108.39 83.9741 108.127 84.1085C109.398 84.683 110.373 84.0722 111.349 83.4578C111.349 83.4578 111.345 83.4509 111.464 83.4368C111.563 83.3743 111.663 83.3117 111.901 83.1965C115.316 81.3777 117.9 78.802 119.301 75.0692C119.331 75.0423 119.361 75.0169 119.389 75.0041C119.389 75.0041 119.378 75.0081 119.486 74.9024C120.911 71.3157 121.008 67.6574 120.017 63.8623C119.807 63.8006 119.598 63.7389 119.331 63.8477C118.997 65.8771 118.663 67.9065 118.324 69.924C118.324 69.924 118.336 69.9188 118.235 70.0196C118.195 70.2036 118.155 70.3876 118.113 70.5583Z" fill="#38548C"/>
</svg>
