<svg width="73" height="23" viewBox="0 0 73 23" fill="none" xmlns="http://www.w3.org/2000/svg">
<path d="M1.976 17.74C1.528 17.74 1.2 17.668 0.992 17.524C0.784 17.396 0.656 17.22 0.608 16.996C0.56 16.772 0.536 16.524 0.536 16.252V2.404C0.536 1.86 0.64 1.484 0.848 1.276C1.072 1.068 1.472 0.964 2.048 0.964H11.408C11.68 0.964 11.92 0.995999 12.128 1.06C12.336 1.108 12.504 1.236 12.632 1.444C12.76 1.636 12.824 1.964 12.824 2.428C12.824 2.876 12.752 3.204 12.608 3.412C12.48 3.62 12.304 3.748 12.08 3.796C11.872 3.844 11.632 3.868 11.36 3.868H3.44V7.9H8.888C9.16 7.9 9.392 7.932 9.584 7.996C9.792 8.044 9.944 8.164 10.04 8.356C10.152 8.532 10.208 8.828 10.208 9.244C10.208 9.628 10.152 9.916 10.04 10.108C9.928 10.284 9.768 10.396 9.56 10.444C9.368 10.476 9.136 10.492 8.864 10.492H3.44V16.276C3.44 16.548 3.408 16.796 3.344 17.02C3.296 17.228 3.168 17.396 2.96 17.524C2.752 17.668 2.424 17.74 1.976 17.74ZM19.376 17.74C18.784 17.74 18.256 17.7 17.792 17.62C17.344 17.54 16.952 17.404 16.616 17.212C16.296 17.02 16.032 16.764 15.824 16.444C15.616 16.108 15.456 15.7 15.344 15.22C15.248 14.74 15.2 14.164 15.2 13.492V1.924C15.2 1.652 15.224 1.412 15.272 1.204C15.336 0.98 15.464 0.803999 15.656 0.675999C15.864 0.531999 16.192 0.459999 16.64 0.459999C17.088 0.459999 17.408 0.523999 17.6 0.651999C17.808 0.78 17.936 0.956 17.984 1.18C18.048 1.388 18.08 1.628 18.08 1.9V13.372C18.08 13.676 18.096 13.932 18.128 14.14C18.176 14.332 18.248 14.492 18.344 14.62C18.456 14.732 18.592 14.812 18.752 14.86C18.928 14.908 19.136 14.932 19.376 14.932C19.584 14.932 19.768 14.956 19.928 15.004C20.104 15.052 20.24 15.172 20.336 15.364C20.448 15.556 20.504 15.868 20.504 16.3C20.504 16.748 20.448 17.076 20.336 17.284C20.24 17.492 20.104 17.62 19.928 17.668C19.752 17.716 19.568 17.74 19.376 17.74ZM23.7684 17.74C23.3364 17.74 23.0164 17.668 22.8084 17.524C22.6004 17.396 22.4724 17.228 22.4244 17.02C22.3764 16.796 22.3524 16.548 22.3524 16.276V7.348C22.3524 7.092 22.3764 6.86 22.4244 6.652C22.4884 6.428 22.6164 6.252 22.8084 6.124C23.0164 5.996 23.3444 5.932 23.7924 5.932C24.2404 5.932 24.5604 5.996 24.7524 6.124C24.9604 6.252 25.0884 6.428 25.1364 6.652C25.1844 6.876 25.2084 7.124 25.2084 7.396V16.3C25.2084 16.572 25.1844 16.82 25.1364 17.044C25.0884 17.252 24.9604 17.42 24.7524 17.548C24.5604 17.676 24.2324 17.74 23.7684 17.74ZM23.7684 3.604C23.3044 3.604 22.9604 3.54 22.7364 3.412C22.5284 3.268 22.3924 3.076 22.3284 2.836C22.2804 2.596 22.2564 2.332 22.2564 2.044C22.2564 1.74 22.2804 1.476 22.3284 1.252C22.3924 1.028 22.5364 0.851999 22.7604 0.723999C22.9844 0.579999 23.3284 0.508 23.7924 0.508C24.2724 0.508 24.6164 0.579999 24.8244 0.723999C25.0324 0.867999 25.1684 1.06 25.2324 1.3C25.2964 1.524 25.3284 1.788 25.3284 2.092C25.3284 2.364 25.2964 2.62 25.2324 2.86C25.1684 3.1 25.0324 3.284 24.8244 3.412C24.6164 3.54 24.2644 3.604 23.7684 3.604ZM32.9939 22.54C32.4179 22.54 31.8659 22.468 31.3379 22.324C30.8099 22.196 30.3299 22.02 29.8979 21.796C29.4819 21.572 29.1459 21.332 28.8899 21.076C28.6499 20.82 28.5299 20.58 28.5299 20.356C28.5299 20.132 28.5619 19.94 28.6259 19.78C28.7059 19.62 28.8179 19.46 28.9619 19.3C29.1539 19.108 29.3059 18.964 29.4179 18.868C29.5459 18.772 29.7139 18.724 29.9219 18.724C30.0979 18.724 30.2659 18.788 30.4259 18.916C30.6019 19.044 30.8019 19.188 31.0259 19.348C31.2499 19.508 31.5219 19.652 31.8419 19.78C32.1619 19.908 32.5699 19.972 33.0659 19.972C33.4819 19.972 33.8659 19.9 34.2179 19.756C34.5699 19.612 34.8659 19.396 35.1059 19.108C35.3619 18.836 35.5619 18.508 35.7059 18.124C35.8499 17.74 35.9219 17.308 35.9219 16.828L35.8979 6.892C35.9299 6.524 36.0579 6.268 36.2819 6.124C36.5059 5.964 36.8499 5.884 37.3139 5.884C37.7459 5.884 38.0579 5.948 38.2499 6.076C38.4419 6.188 38.5619 6.356 38.6099 6.58C38.6579 6.788 38.6819 7.02 38.6819 7.276V16.996C38.6819 17.876 38.5299 18.66 38.2259 19.348C37.9219 20.036 37.5059 20.612 36.9779 21.076C36.4499 21.556 35.8419 21.916 35.1539 22.156C34.4819 22.412 33.7619 22.54 32.9939 22.54ZM32.7299 17.428C31.9779 17.428 31.2739 17.284 30.6179 16.996C29.9779 16.708 29.4099 16.3 28.9139 15.772C28.4339 15.244 28.0499 14.636 27.7619 13.948C27.4899 13.244 27.3539 12.484 27.3539 11.668C27.3539 10.868 27.4899 10.124 27.7619 9.436C28.0499 8.748 28.4339 8.14 28.9139 7.612C29.4099 7.084 29.9779 6.676 30.6179 6.388C31.2739 6.084 31.9699 5.932 32.7059 5.932C33.4259 5.932 34.0499 6.076 34.5779 6.364C35.1219 6.636 35.5699 7.028 35.9219 7.54C36.2739 8.052 36.5379 8.66 36.7139 9.364C36.9059 10.068 37.0019 10.844 37.0019 11.692C37.0019 12.86 36.8419 13.876 36.5219 14.74C36.2019 15.604 35.7299 16.268 35.1059 16.732C34.4819 17.196 33.6899 17.428 32.7299 17.428ZM32.9939 14.716C33.5379 14.716 34.0179 14.588 34.4339 14.332C34.8659 14.06 35.2019 13.692 35.4419 13.228C35.6979 12.764 35.8259 12.244 35.8259 11.668C35.8259 11.076 35.6979 10.556 35.4419 10.108C35.2019 9.644 34.8659 9.284 34.4339 9.028C34.0019 8.772 33.5139 8.644 32.9699 8.644C32.4259 8.644 31.9379 8.78 31.5059 9.052C31.0899 9.308 30.7619 9.66 30.5219 10.108C30.2819 10.556 30.1619 11.076 30.1619 11.668C30.1619 12.26 30.2819 12.788 30.5219 13.252C30.7779 13.7 31.1139 14.06 31.5299 14.332C31.9619 14.588 32.4499 14.716 32.9939 14.716ZM46.4002 22.54C45.8242 22.54 45.2722 22.468 44.7442 22.324C44.2162 22.196 43.7362 22.02 43.3042 21.796C42.8882 21.572 42.5522 21.332 42.2962 21.076C42.0562 20.82 41.9362 20.58 41.9362 20.356C41.9362 20.132 41.9682 19.94 42.0322 19.78C42.1122 19.62 42.2242 19.46 42.3682 19.3C42.5602 19.108 42.7122 18.964 42.8242 18.868C42.9522 18.772 43.1202 18.724 43.3282 18.724C43.5042 18.724 43.6722 18.788 43.8322 18.916C44.0082 19.044 44.2082 19.188 44.4322 19.348C44.6562 19.508 44.9282 19.652 45.2482 19.78C45.5682 19.908 45.9762 19.972 46.4722 19.972C46.8882 19.972 47.2722 19.9 47.6242 19.756C47.9762 19.612 48.2722 19.396 48.5122 19.108C48.7682 18.836 48.9682 18.508 49.1122 18.124C49.2562 17.74 49.3282 17.308 49.3282 16.828L49.3042 6.892C49.3362 6.524 49.4642 6.268 49.6882 6.124C49.9122 5.964 50.2562 5.884 50.7202 5.884C51.1522 5.884 51.4642 5.948 51.6562 6.076C51.8482 6.188 51.9682 6.356 52.0162 6.58C52.0642 6.788 52.0882 7.02 52.0882 7.276V16.996C52.0882 17.876 51.9362 18.66 51.6322 19.348C51.3282 20.036 50.9122 20.612 50.3842 21.076C49.8562 21.556 49.2482 21.916 48.5602 22.156C47.8882 22.412 47.1682 22.54 46.4002 22.54ZM46.1362 17.428C45.3842 17.428 44.6802 17.284 44.0242 16.996C43.3842 16.708 42.8162 16.3 42.3202 15.772C41.8402 15.244 41.4562 14.636 41.1682 13.948C40.8962 13.244 40.7602 12.484 40.7602 11.668C40.7602 10.868 40.8962 10.124 41.1682 9.436C41.4562 8.748 41.8402 8.14 42.3202 7.612C42.8162 7.084 43.3842 6.676 44.0242 6.388C44.6802 6.084 45.3762 5.932 46.1122 5.932C46.8322 5.932 47.4562 6.076 47.9842 6.364C48.5282 6.636 48.9762 7.028 49.3282 7.54C49.6802 8.052 49.9442 8.66 50.1202 9.364C50.3122 10.068 50.4082 10.844 50.4082 11.692C50.4082 12.86 50.2482 13.876 49.9282 14.74C49.6082 15.604 49.1362 16.268 48.5122 16.732C47.8882 17.196 47.0962 17.428 46.1362 17.428ZM46.4002 14.716C46.9442 14.716 47.4242 14.588 47.8402 14.332C48.2722 14.06 48.6082 13.692 48.8482 13.228C49.1042 12.764 49.2322 12.244 49.2322 11.668C49.2322 11.076 49.1042 10.556 48.8482 10.108C48.6082 9.644 48.2722 9.284 47.8402 9.028C47.4082 8.772 46.9202 8.644 46.3762 8.644C45.8322 8.644 45.3442 8.78 44.9122 9.052C44.4962 9.308 44.1682 9.66 43.9282 10.108C43.6882 10.556 43.5682 11.076 43.5682 11.668C43.5682 12.26 43.6882 12.788 43.9282 13.252C44.1842 13.7 44.5202 14.06 44.9362 14.332C45.3682 14.588 45.8562 14.716 46.4002 14.716ZM58.7744 17.74C58.1824 17.74 57.6544 17.7 57.1904 17.62C56.7424 17.54 56.3504 17.404 56.0144 17.212C55.6944 17.02 55.4304 16.764 55.2224 16.444C55.0144 16.108 54.8544 15.7 54.7424 15.22C54.6464 14.74 54.5984 14.164 54.5984 13.492V1.924C54.5984 1.652 54.6224 1.412 54.6704 1.204C54.7344 0.98 54.8624 0.803999 55.0544 0.675999C55.2624 0.531999 55.5904 0.459999 56.0384 0.459999C56.4864 0.459999 56.8064 0.523999 56.9984 0.651999C57.2064 0.78 57.3344 0.956 57.3824 1.18C57.4464 1.388 57.4784 1.628 57.4784 1.9V13.372C57.4784 13.676 57.4944 13.932 57.5264 14.14C57.5744 14.332 57.6464 14.492 57.7424 14.62C57.8544 14.732 57.9904 14.812 58.1504 14.86C58.3264 14.908 58.5344 14.932 58.7744 14.932C58.9824 14.932 59.1664 14.956 59.3264 15.004C59.5024 15.052 59.6384 15.172 59.7344 15.364C59.8464 15.556 59.9024 15.868 59.9024 16.3C59.9024 16.748 59.8464 17.076 59.7344 17.284C59.6384 17.492 59.5024 17.62 59.3264 17.668C59.1504 17.716 58.9664 17.74 58.7744 17.74ZM67.3428 17.884C66.3028 17.884 65.3908 17.716 64.6068 17.38C63.8388 17.044 63.1908 16.588 62.6628 16.012C62.1508 15.42 61.7588 14.764 61.4868 14.044C61.2308 13.308 61.1028 12.548 61.1028 11.764C61.1028 10.612 61.3668 9.588 61.8948 8.692C62.4228 7.796 63.1508 7.092 64.0788 6.58C65.0228 6.068 66.1028 5.812 67.3188 5.812C68.1828 5.812 68.9428 5.948 69.5988 6.22C70.2548 6.492 70.7988 6.852 71.2308 7.3C71.6788 7.732 72.0148 8.212 72.2388 8.74C72.4788 9.268 72.5988 9.78 72.5988 10.276C72.5988 11.124 72.3908 11.74 71.9748 12.124C71.5748 12.508 71.0708 12.7 70.4628 12.7H64.1268C64.1428 13.244 64.3108 13.716 64.6308 14.116C64.9668 14.516 65.3828 14.828 65.8788 15.052C66.3908 15.26 66.9108 15.364 67.4388 15.364C67.8388 15.364 68.1908 15.34 68.4948 15.292C68.8148 15.244 69.0868 15.188 69.3108 15.124C69.5348 15.044 69.7268 14.964 69.8868 14.884C70.0628 14.804 70.2228 14.732 70.3668 14.668C70.5108 14.604 70.6468 14.564 70.7748 14.548C70.9508 14.532 71.1268 14.572 71.3028 14.668C71.4788 14.764 71.6228 14.932 71.7348 15.172C71.8308 15.332 71.8948 15.484 71.9268 15.628C71.9748 15.756 71.9988 15.884 71.9988 16.012C71.9988 16.332 71.8068 16.636 71.4228 16.924C71.0388 17.196 70.4948 17.42 69.7908 17.596C69.1028 17.788 68.2868 17.884 67.3428 17.884ZM64.1268 10.996H69.0468C69.3188 10.996 69.5268 10.956 69.6708 10.876C69.8148 10.78 69.8868 10.588 69.8868 10.3C69.8868 9.932 69.7748 9.604 69.5508 9.316C69.3268 9.012 69.0228 8.78 68.6388 8.62C68.2548 8.444 67.8068 8.356 67.2948 8.356C66.7028 8.356 66.1668 8.476 65.6868 8.716C65.2068 8.94 64.8228 9.252 64.5348 9.652C64.2628 10.052 64.1268 10.5 64.1268 10.996Z" fill="black"/>
</svg>
