<svg width="29" height="28" viewBox="0 0 29 28" fill="none" xmlns="http://www.w3.org/2000/svg">
<g clip-path="url(#clip0_149_226)">
<path d="M9.77852 25.6666C13.2376 25.6666 16.0417 22.7938 16.0417 19.25C16.0417 15.7062 13.2376 12.8333 9.77852 12.8333C9.15526 12.8333 8.55326 12.9266 7.9851 13.1002C5.40001 13.8904 3.51536 16.3447 3.51536 19.25C3.51536 19.9623 3.62867 20.6476 3.83782 21.2878C3.92623 21.5585 3.97043 21.6938 3.98494 21.7862C4.00009 21.8828 4.00274 21.937 3.9971 22.0345C3.9917 22.1279 3.96833 22.2335 3.92158 22.4447L3.20834 25.6666L6.70228 25.1895C6.89299 25.1634 6.98834 25.1504 7.07161 25.151C7.15928 25.1516 7.20582 25.1563 7.2918 25.1735C7.37346 25.1897 7.49486 25.2326 7.73766 25.3183C8.37737 25.5441 9.06397 25.6666 9.77852 25.6666Z" fill="black"/>
<path d="M7.9851 13.1002C7.91259 12.6329 7.87497 12.1541 7.87497 11.6666C7.87497 6.51199 12.0811 2.33331 17.2697 2.33331C22.4583 2.33331 26.6644 6.51199 26.6644 11.6666C26.6644 12.8311 26.4498 13.9457 26.0577 14.9736C25.9763 15.187 25.9355 15.2938 25.917 15.3771C25.8987 15.4597 25.8917 15.5178 25.8897 15.6023C25.8877 15.6877 25.8992 15.7817 25.9224 15.9697L26.3921 19.7849C26.4429 20.1979 26.4683 20.4044 26.3996 20.5546C26.3394 20.6861 26.2325 20.7906 26.0996 20.8477C25.9479 20.913 25.7421 20.8828 25.3303 20.8224L21.6142 20.2777C21.4202 20.2493 21.3231 20.235 21.2348 20.2355C21.1474 20.236 21.0869 20.2425 21.0014 20.2605C20.9149 20.2787 20.8044 20.32 20.5835 20.4028C19.553 20.7888 18.4362 21 17.2697 21C16.7818 21 16.3026 20.963 15.8348 20.8918M7.9851 13.1002C8.55326 12.9266 9.15526 12.8333 9.77852 12.8333M7.9851 13.1002C5.40001 13.8904 3.51536 16.3447 3.51536 19.25M3.51536 19.25C3.51536 19.9623 3.62867 20.6476 3.83782 21.2878C3.92623 21.5585 3.97043 21.6938 3.98494 21.7862C4.00009 21.8828 4.00274 21.937 3.9971 22.0345C3.9917 22.1279 3.96833 22.2335 3.92158 22.4447L3.20834 25.6666L6.70228 25.1895C6.89299 25.1634 6.98834 25.1504 7.07161 25.151C7.15928 25.1516 7.20582 25.1563 7.2918 25.1735C7.37346 25.1897 7.49486 25.2326 7.73766 25.3183C8.37737 25.5441 9.06397 25.6666 9.77852 25.6666C13.2376 25.6666 16.0417 22.7938 16.0417 19.25C16.0417 15.7062 13.2376 12.8333 9.77852 12.8333M3.51536 19.25C3.51536 15.7062 6.31947 12.8333 9.77852 12.8333" stroke="black" stroke-width="3" stroke-linecap="round" stroke-linejoin="round"/>
</g>
<defs>
<clipPath id="clip0_149_226">
<rect width="28" height="28" fill="white" transform="translate(0.875)"/>
</clipPath>
</defs>
</svg>
