<svg width="29" height="28" viewBox="0 0 29 28" fill="none" xmlns="http://www.w3.org/2000/svg">
<path d="M24.875 20.7666V12.3259C24.875 11.6558 24.875 11.3208 24.7886 11.0122C24.7121 10.7389 24.5864 10.4819 24.4176 10.2537C24.2271 9.99606 23.9626 9.79037 23.4337 9.37898L15.521 3.22467C15.1111 2.90587 14.9062 2.74647 14.6799 2.6852C14.4802 2.63114 14.2698 2.63114 14.0701 2.6852C13.8438 2.74647 13.6389 2.90587 13.229 3.22466L5.31629 9.37898C4.78736 9.79037 4.52289 9.99606 4.33236 10.2537C4.16359 10.4819 4.03787 10.7389 3.96137 11.0122C3.875 11.3208 3.875 11.6558 3.875 12.3259V20.7666C3.875 22.0734 3.875 22.7268 4.12932 23.226C4.35302 23.665 4.70998 24.022 5.14902 24.2457C5.64815 24.5 6.30154 24.5 7.60833 24.5H10.875V15.8666C10.875 15.2133 10.875 14.8866 11.0022 14.637C11.114 14.4175 11.2925 14.239 11.512 14.1271C11.7616 14 12.0883 14 12.7417 14H16.0083C16.6617 14 16.9884 14 17.238 14.1271C17.4575 14.239 17.636 14.4175 17.7478 14.637C17.875 14.8866 17.875 15.2133 17.875 15.8666V24.5H21.1417C22.4485 24.5 23.1019 24.5 23.601 24.2457C24.04 24.022 24.397 23.665 24.6207 23.226C24.875 22.7268 24.875 22.0734 24.875 20.7666Z" fill="black"/>
<path d="M7.60833 24.5H21.1417M7.60833 24.5C6.30154 24.5 5.64815 24.5 5.14902 24.2457C4.70998 24.022 4.35302 23.665 4.12932 23.226C3.875 22.7268 3.875 22.0734 3.875 20.7666V12.3259C3.875 11.6558 3.875 11.3208 3.96137 11.0122C4.03787 10.7389 4.16359 10.4819 4.33236 10.2537C4.52289 9.99606 4.78736 9.79037 5.31629 9.37898L13.229 3.22466C13.6389 2.90587 13.8438 2.74647 14.0701 2.6852C14.2698 2.63114 14.4802 2.63114 14.6799 2.6852C14.9062 2.74647 15.1111 2.90587 15.521 3.22467L23.4337 9.37898C23.9626 9.79037 24.2271 9.99606 24.4176 10.2537C24.5864 10.4819 24.7121 10.7389 24.7886 11.0122C24.875 11.3208 24.875 11.6558 24.875 12.3259V20.7666C24.875 22.0734 24.875 22.7268 24.6207 23.226C24.397 23.665 24.04 24.022 23.601 24.2457C23.1019 24.5 22.4485 24.5 21.1417 24.5M7.60833 24.5H10.875V15.8666C10.875 15.2133 10.875 14.8866 11.0022 14.637C11.114 14.4175 11.2925 14.239 11.512 14.1271C11.7616 14 12.0883 14 12.7417 14H16.0083C16.6617 14 16.9884 14 17.238 14.1271C17.4575 14.239 17.636 14.4175 17.7478 14.637C17.875 14.8866 17.875 15.2133 17.875 15.8666V24.5H21.1417" stroke="black" stroke-width="2" stroke-linecap="round" stroke-linejoin="round"/>
</svg>
