<svg width="29" height="28" viewBox="0 0 29 28" fill="none" xmlns="http://www.w3.org/2000/svg">
<path d="M6.82734 22.6781C7.53705 21.006 9.19407 19.8333 11.125 19.8333H18.125C20.0559 19.8333 21.7129 21.0061 22.4226 22.6781M19.2917 11.0833C19.2917 13.6606 17.2023 15.75 14.625 15.75C12.0477 15.75 9.95833 13.6606 9.95833 11.0833C9.95833 8.50598 12.0477 6.41665 14.625 6.41665C17.2023 6.41665 19.2917 8.50598 19.2917 11.0833ZM26.2917 14C26.2917 20.4433 21.0683 25.6666 14.625 25.6666C8.18167 25.6666 2.95833 20.4433 2.95833 14C2.95833 7.55666 8.18167 2.33331 14.625 2.33331C21.0683 2.33331 26.2917 7.55666 26.2917 14Z" stroke="black" stroke-width="2" stroke-linecap="round" stroke-linejoin="round"/>
</svg>
