<svg width="27" height="26" viewBox="0 0 27 26" fill="none" xmlns="http://www.w3.org/2000/svg">
<path d="M13.625 0.333008C20.6204 0.333184 26.2909 6.00464 26.291 13C26.291 13.1966 26.2862 13.3925 26.2773 13.5869C26.2751 13.6354 26.2723 13.6841 26.2695 13.7324C26.2601 13.8973 26.2481 14.0615 26.2324 14.2246C26.2233 14.3193 26.2123 14.4138 26.2012 14.5078C26.1966 14.5465 26.1924 14.5855 26.1875 14.624C26.1828 14.6608 26.1779 14.6977 26.1729 14.7344C26.1609 14.8215 26.1475 14.9085 26.1338 14.9951C26.1261 15.044 26.1177 15.0929 26.1094 15.1416C26.0981 15.2078 26.0865 15.274 26.0742 15.3398C26.0679 15.3737 26.0613 15.4077 26.0547 15.4414C26.0401 15.5161 26.0256 15.5909 26.0098 15.665C26.0027 15.698 25.9946 15.7309 25.9873 15.7637C25.9711 15.8367 25.955 15.9099 25.9375 15.9824C25.9288 16.0186 25.9192 16.0548 25.9102 16.0908C25.8956 16.1489 25.8806 16.2069 25.8652 16.2646C25.8551 16.3027 25.8454 16.341 25.835 16.3789C25.8125 16.4604 25.7877 16.5413 25.7637 16.6221C25.7538 16.6552 25.7445 16.6887 25.7344 16.7217C25.5468 17.3328 25.3147 17.9243 25.041 18.4922C24.9597 18.6608 24.8736 18.8268 24.7852 18.9912C24.7715 19.0166 24.758 19.0421 24.7441 19.0674C24.66 19.2213 24.5727 19.3734 24.4824 19.5234C24.4702 19.5438 24.4587 19.5647 24.4463 19.585C24.353 19.738 24.2558 19.8884 24.1562 20.0371C24.1353 20.0685 24.114 20.0997 24.0928 20.1309C23.9966 20.2717 23.8985 20.4111 23.7969 20.5479C23.7822 20.5676 23.7667 20.5868 23.752 20.6064C23.6401 20.7551 23.5253 20.9014 23.4072 21.0449C23.3975 21.0567 23.3877 21.0683 23.3779 21.0801C23.0046 21.5303 22.6011 21.9543 22.1699 22.3486C22.155 22.3623 22.14 22.376 22.125 22.3896C22.1135 22.4001 22.1024 22.4115 22.0908 22.4219C21.8251 22.6608 21.5481 22.8875 21.2627 23.1035C21.1968 23.1534 21.1294 23.2014 21.0625 23.25C20.9528 23.3297 20.8428 23.4091 20.7305 23.4854C20.6671 23.5284 20.6023 23.5694 20.5381 23.6113C20.4398 23.6754 20.3413 23.7393 20.2412 23.8008C20.1586 23.8515 20.0741 23.8994 19.9902 23.9482C19.9046 23.9981 19.8193 24.0488 19.7324 24.0967C19.6432 24.1459 19.5524 24.1922 19.4619 24.2393C19.3773 24.2833 19.2928 24.3279 19.207 24.3701C19.0638 24.4406 18.9197 24.5101 18.7734 24.5752C18.7658 24.5786 18.7577 24.5816 18.75 24.585C18.0722 24.8853 17.363 25.1271 16.6289 25.3057C16.599 25.3129 16.569 25.3211 16.5391 25.3281C16.3769 25.3663 16.2134 25.4017 16.0488 25.4336C16.021 25.439 15.9928 25.444 15.9648 25.4492C15.7994 25.4801 15.6325 25.5078 15.4648 25.5322C15.4327 25.5369 15.4003 25.5415 15.3682 25.5459C15.1987 25.5692 15.028 25.5889 14.8564 25.6055C14.8367 25.6074 14.8167 25.6095 14.7969 25.6113C14.6212 25.6274 14.4443 25.6405 14.2666 25.6494C14.2309 25.6512 14.1949 25.6518 14.1592 25.6533C13.9821 25.6607 13.8039 25.666 13.625 25.666C10.7565 25.6659 8.108 24.7116 5.98438 23.1035L5.56738 22.7734L5.30664 22.5527C5.27547 22.5256 5.24477 22.4972 5.21387 22.4697C5.19568 22.4536 5.17629 22.4381 5.1582 22.4219C5.13284 22.3991 5.10819 22.3746 5.08301 22.3516C5.05573 22.3266 5.02803 22.3015 5.00098 22.2764C4.95387 22.2326 4.90679 22.1881 4.86035 22.1436C4.82174 22.1065 4.78326 22.0688 4.74512 22.0312C4.70599 21.9928 4.66655 21.954 4.62793 21.915C4.58801 21.8748 4.54817 21.8338 4.50879 21.793C4.46621 21.7488 4.42378 21.7039 4.38184 21.6592C4.34461 21.6195 4.30723 21.5793 4.27051 21.5391C4.2389 21.5045 4.20701 21.4695 4.17578 21.4346C4.13225 21.3858 4.08869 21.3365 4.0459 21.2871C4.02046 21.2577 3.9949 21.2279 3.96973 21.1982C3.92494 21.1455 3.87987 21.0925 3.83594 21.0391C3.78545 20.9776 3.73587 20.9149 3.68652 20.8525C3.66835 20.8296 3.64985 20.8063 3.63184 20.7832C3.57352 20.7084 3.51564 20.6327 3.45898 20.5566C3.45296 20.5486 3.44643 20.5403 3.44043 20.5322C3.38805 20.4615 3.33706 20.3892 3.28613 20.3174C3.24945 20.2656 3.21268 20.2134 3.17676 20.1611C3.04357 19.9672 2.91544 19.769 2.79297 19.5674C2.73383 19.47 2.67571 19.3715 2.61914 19.2725C2.5365 19.1278 2.45593 18.9812 2.37891 18.833C2.2961 18.6737 2.21677 18.5118 2.14062 18.3486C2.11963 18.3036 2.0986 18.2582 2.07812 18.2129C2.0429 18.135 2.0083 18.0563 1.97461 17.9775C1.96508 17.9553 1.95569 17.9325 1.94629 17.9102C1.92251 17.8536 1.89994 17.7962 1.87695 17.7393C1.85612 17.6877 1.83462 17.6359 1.81445 17.584C1.79269 17.528 1.77099 17.4714 1.75 17.415C1.72967 17.3604 1.71003 17.305 1.69043 17.25C1.67162 17.1972 1.65289 17.1439 1.63477 17.0908C1.61365 17.0289 1.59244 16.9666 1.57227 16.9043C1.56314 16.8761 1.55385 16.8476 1.54492 16.8193C1.52398 16.753 1.50425 16.6859 1.48438 16.6191C1.46796 16.564 1.45122 16.5086 1.43555 16.4531C1.41725 16.3884 1.40011 16.3229 1.38281 16.2578C1.37422 16.2254 1.36577 16.1926 1.35742 16.1602C1.33936 16.0898 1.32157 16.019 1.30469 15.9482C1.29209 15.8954 1.27951 15.8422 1.26758 15.7891C1.22587 15.6035 1.18874 15.4161 1.15527 15.2275C1.1487 15.1905 1.14101 15.1533 1.13477 15.1162C1.11836 15.0187 1.10303 14.9205 1.08887 14.8223C1.08711 14.81 1.08571 14.7974 1.08398 14.7852C1.07177 14.6986 1.06026 14.6115 1.0498 14.5244C1.04565 14.4898 1.04197 14.4547 1.03809 14.4199C1.01655 14.2269 0.999094 14.0324 0.986328 13.8369C0.968276 13.5604 0.958015 13.2811 0.958008 13C0.958173 6.00464 6.62964 0.333181 13.625 0.333008ZM10.125 19.833C8.86793 19.8331 7.75766 20.4669 7.09668 21.4336C8.90117 22.8326 11.1644 23.6659 13.625 23.666C13.8705 23.666 14.1141 23.654 14.3555 23.6377C14.4603 23.6306 14.565 23.6243 14.6689 23.6143C14.7457 23.6068 14.8222 23.596 14.8984 23.5869C15.0006 23.5748 15.1028 23.5629 15.2041 23.5479C15.2609 23.5394 15.3176 23.5298 15.374 23.5205C15.4905 23.5013 15.6066 23.4809 15.7217 23.458C15.7759 23.4472 15.8299 23.4345 15.8838 23.4229C16.0003 23.3977 16.1164 23.3717 16.2314 23.3428C16.2827 23.3299 16.3338 23.3163 16.3848 23.3027C16.4955 23.2732 16.6056 23.242 16.7148 23.209C16.7795 23.1894 16.8441 23.1692 16.9082 23.1484C16.9975 23.1196 17.0865 23.0897 17.1748 23.0586C17.2474 23.033 17.3198 23.0066 17.3916 22.9795C17.4844 22.9445 17.5764 22.9076 17.668 22.8701C17.7277 22.8456 17.7875 22.8214 17.8467 22.7959C17.9511 22.7508 18.0545 22.7036 18.1572 22.6553C18.2015 22.6345 18.2461 22.6142 18.29 22.5928C18.4028 22.5378 18.5145 22.4807 18.625 22.4219C18.6655 22.4003 18.7059 22.3785 18.7461 22.3564C18.848 22.3006 18.948 22.2417 19.0479 22.1826C19.0927 22.1561 19.1382 22.1307 19.1826 22.1035C19.2746 22.0472 19.365 21.9886 19.4551 21.9297C19.6942 21.7733 19.9261 21.6072 20.1514 21.4326C19.4903 20.4668 18.3814 19.8331 17.125 19.833H10.125ZM13.625 4.41699C10.4955 4.41717 7.95801 6.95448 7.95801 10.084C7.95838 13.2132 10.4958 15.7498 13.625 15.75C16.7542 15.7498 19.2906 13.2132 19.291 10.084C19.291 6.95448 16.7545 4.41717 13.625 4.41699Z" fill="black"/>
</svg>
